<svg width="154" height="154" viewBox="0 0 154 154" fill="none" xmlns="http://www.w3.org/2000/svg">
<g id="Airdrop-Drone-Dropping-Coins--Streamline-Milano">
<g id="Airdrop-Drone-Dropping-Coins--Streamline-Milano.svg">
<g id="Group">
<path id="Subtract" fill-rule="evenodd" clip-rule="evenodd" d="M116.337 10.3121C111.56 9.5878 104.551 9.66461 100.506 11.9681C96.6331 14.1725 97.9995 17.546 101.619 19.3641C101.641 19.3753 101.67 19.3838 101.699 19.3926C101.789 19.4193 101.885 19.4484 101.849 19.5622C101.717 19.9836 98.4834 19.4023 96.9473 19.1261H96.9465C96.6408 19.071 96.4019 19.0281 96.2683 19.0077C94.2221 18.6928 84.3252 17.509 81.8174 17.2091L81.8167 17.2089C81.4495 17.1651 81.2414 17.1401 81.239 17.1397L80.991 17.0887C79.3096 16.7437 78.6805 16.6146 78.2842 16.2395C78.0469 16.0152 77.8925 15.7029 77.6467 15.2037C77.6029 15.1158 77.5568 15.0222 77.5069 14.9222C77.6905 14.9056 77.9002 14.8882 78.1329 14.869C80.9656 14.6346 87.1349 14.1244 88.8355 11.3675C92.5223 5.39633 70.1931 1.16876 61.5544 5.82492C56.6087 8.49097 60.625 12.8291 69.7192 14.2739C70.0879 14.3328 70.0382 14.404 69.8548 14.6673C69.825 14.71 69.7917 14.758 69.7561 14.8116C68.9447 16.0457 68.5487 16.841 68.2946 17.3512C68.0749 17.7922 67.9613 18.0204 67.7771 18.1352C67.5796 18.2582 67.3011 18.251 66.724 18.2362C65.9162 18.2154 64.5233 18.1795 61.9492 18.4646C61.3168 18.5347 60.787 18.5893 60.3234 18.6371L60.3225 18.6372L60.322 18.6373C58.1488 18.8614 57.4283 18.9357 54.3882 19.7466C54.2136 19.7932 54.2461 19.6582 54.3125 19.3818C54.4344 18.8749 54.6707 17.8923 53.955 16.6811C51.1852 11.9958 36.8742 10.7415 28.3683 15.1012C24.4856 17.0913 22.6845 20.4778 26.0771 23.1047C28.5173 24.9906 31.671 25.4445 33.4746 25.704C34.2882 25.8211 34.827 25.8987 34.9017 26.0503C34.9796 26.2082 35.0494 26.3625 35.1176 26.5131C36.0473 28.5655 36.6662 29.9321 52.9472 30.4952C53.3992 30.5112 54.4394 30.5656 54.6253 30.5754L54.6265 30.5755L54.628 30.5756H54.6288L54.6485 30.5766C54.7964 30.5879 54.7589 30.8264 54.6406 31.5795C54.374 33.2755 53.6973 37.5818 53.8036 47.7818C53.8254 49.8541 53.8818 52.6919 55.1029 54.3619C55.368 54.701 55.6846 54.9958 56.0408 55.2356C56.7064 55.5542 57.4337 55.7111 58.1642 55.6986C58.2033 55.4903 58.2417 55.2812 58.2792 55.0679C56.057 55.1084 55.2499 54.1375 54.7638 51.908C54.5379 50.2661 54.4352 48.6095 54.4565 46.9523C54.3985 39.8888 54.3987 39.8871 54.9064 34.5688C54.9367 34.2519 54.9687 33.9163 55.0026 33.5591L55.0082 33.5012L55.0082 33.5008C55.1578 31.9381 55.2215 31.2728 55.2822 30.9261C55.3427 30.5778 55.4343 30.5848 55.9978 30.6275L55.9982 30.6276H55.9987L55.9996 30.6276C56.1154 30.6365 56.2512 30.6467 56.4105 30.6557C56.8811 30.6819 57.2392 30.6699 57.5091 30.6607C57.8715 30.6486 58.0749 30.6418 58.1771 30.7399C58.3073 30.8652 58.2733 31.1612 58.1959 31.8349C58.1457 32.2722 58.0772 32.8686 58.0235 33.6805C57.7532 37.7299 57.2224 45.9123 57.9675 49.6498C58.1585 50.6093 58.3758 51.1157 58.6729 51.3759C58.6554 51.06 58.6023 50.8489 58.5205 50.6668C58.2628 50.0947 58.1381 49.7041 58.5328 49.5011C58.4347 48.9586 58.3652 48.2473 58.3139 47.3225C58.087 43.2446 58.3951 37.0185 58.604 32.7959C58.6391 32.0875 58.6714 31.4354 58.6979 30.8593C58.7077 30.6593 58.7226 30.6601 59.4056 30.6976L59.4059 30.6977H59.4066C59.6363 30.7104 59.9414 30.7271 60.347 30.7418C60.4885 30.7465 60.5627 30.9121 60.719 31.2607C60.937 31.7467 61.3145 32.5886 62.2565 33.8472C62.7075 34.4504 63.0041 34.8237 63.1958 35.065C63.5265 35.4812 63.5453 35.5049 63.5069 35.6391C63.0951 37.0615 63.0533 38.5656 63.3856 40.0088C63.5575 40.6225 64.5981 40.9223 65.194 41.094L65.2182 41.101C68.1424 41.9583 69.6524 42.1782 70.4173 42.2895C70.9838 42.372 71.1416 42.3949 71.1625 42.5734C71.2679 43.4726 71.4282 43.9171 71.5128 44.1513C71.5933 44.3744 71.6049 44.4066 71.4344 44.4591C71.3429 44.4874 71.2542 44.5146 71.1681 44.5411L71.1661 44.5417C69.8106 44.9583 69.0992 45.1769 68.3044 46.2395V46.2426C67.4177 47.4311 67.3236 48.2094 67.2648 48.6958C67.2234 49.0386 67.1995 49.2363 66.928 49.3303C65.0287 50.0099 63.0795 50.5399 61.0983 50.9155C61.1686 51.0792 61.2314 51.252 61.2873 51.4325C63.4277 51.03 66.3138 50.1325 67.0908 49.8326C67.1377 50.1486 67.1676 50.4667 67.1807 50.7859C67.2091 51.4155 67.3786 51.865 67.4907 52.1623C67.5876 52.4191 67.6416 52.5624 67.5248 52.6101C65.7921 53.3192 63.5651 53.9849 61.6935 54.4442C61.6985 54.6692 61.7 54.8951 61.6983 55.1199C62.845 54.8577 63.9758 54.5273 65.0846 54.1301C65.7496 53.8971 66.315 53.6881 66.7597 53.5235L66.7604 53.5233C67.4196 53.2795 67.8138 53.1337 67.8743 53.1539C67.9401 53.1761 67.987 53.2467 68.0741 53.3782C68.219 53.5967 68.4752 53.9831 69.1147 54.5948C69.9427 55.0723 70.8699 55.3517 71.8238 55.4113C74.2284 55.7681 76.6678 55.8272 79.0869 55.5872C79.54 55.5465 79.55 55.5799 79.7697 56.304V56.3043C79.8573 56.5909 79.9771 56.9857 80.1699 57.5266C80.7843 59.2394 82.1008 59.6335 83.6593 59.4806C84.5057 59.3653 85.3468 59.2179 86.1809 59.0387C86.247 58.8258 86.3138 58.6161 86.3806 58.4095C85.3038 58.6578 84.2891 58.8386 83.4212 58.9192C82.8444 59.0207 82.2491 58.9153 81.7421 58.6214C81.2352 58.3276 80.8481 57.8643 80.6492 57.3131C80.2398 56.0855 79.9456 54.8224 79.7712 53.5402L79.7321 53.2272C79.6345 52.4514 79.4433 50.9331 79.3933 50.5562C77.5584 36.7351 77.1628 36.1995 76.8655 35.7976C76.7936 35.7004 76.7275 35.6109 76.6482 35.3426C76.7065 35.338 76.765 35.338 76.8233 35.3426C77.7573 35.4909 78.394 35.5584 78.8365 35.6052C79.6883 35.6954 79.8212 35.7095 79.9725 36.0785C80.5808 37.5751 81.1215 41.0787 81.6861 44.7362C82.289 48.6469 82.9196 52.7336 83.6893 54.7308C83.9197 55.3329 84.5511 55.518 85.3022 55.4435C86.0596 55.3522 86.8108 55.2243 87.5527 55.0608C87.6296 54.8477 87.7156 54.6382 87.8108 54.433C87.671 54.4632 87.5312 54.4921 87.3907 54.5195C85.2731 54.9758 84.8867 54.9934 84.4059 54.7331C83.9312 54.4767 84.0879 54.2782 84.4335 53.8395C84.803 53.3715 85.3875 52.63 85.651 51.2528V51.2544C85.9997 49.4286 85.4758 45.8778 83.9197 45.3562L83.8905 45.3465C83.8459 45.3317 83.8114 45.3205 83.7853 45.2995C83.7023 45.2327 83.6985 45.0669 83.6816 44.3744C83.6724 43.973 83.6585 43.3946 83.6232 42.5558C83.6109 42.2737 83.5817 42.0767 83.561 41.9345C83.5364 41.7713 83.5233 41.6801 83.5579 41.615C83.6025 41.5324 83.7254 41.492 84.0034 41.4004C84.3206 41.2959 84.8399 41.125 85.6755 40.7492C86.7509 40.2661 86.5043 38.4672 86.2316 37.3228C86.1902 37.1476 86.2401 37.1227 86.492 36.9971C86.6449 36.9211 86.8715 36.8082 87.1971 36.6031C87.7932 36.2267 88.0159 35.9339 88.1611 35.7427C88.2724 35.596 88.3385 35.5091 88.4929 35.4901C90.738 35.2126 91.9163 34.8237 92.5553 34.6129C93.1037 34.4321 93.2551 34.3821 93.3418 34.6452C94.6322 38.574 95.7183 48.6636 94.9932 50.7697C94.8212 51.2459 94.5109 51.6599 94.1015 51.958C93.8703 52.0951 93.6376 52.2277 93.4018 52.3557C93.4102 52.3754 93.4071 52.3914 93.3872 52.4042C92.828 52.7055 92.2512 52.9718 91.659 53.2013C91.6098 53.2226 91.5599 53.2437 91.5107 53.2646L91.4185 53.6416C91.4063 53.71 91.3909 53.7865 91.3717 53.8713C92.3349 53.4788 93.2727 53.0221 94.1798 52.5033C95.6261 51.5816 95.8174 50.5347 95.7352 47.7227C95.6085 44.9548 95.3419 42.1951 94.9356 39.4542C94.5915 36.9122 94.186 35.6472 93.9717 34.9796C93.8434 34.5782 93.7843 34.3927 93.8488 34.2754C93.9041 34.1747 94.0508 34.1243 94.3242 34.0306C94.6722 33.9114 95.2252 33.722 96.054 33.2696C96.2176 33.1805 96.3036 33.2166 96.342 33.3832C97.3052 37.5371 97.8782 40.0579 98.3821 48.9271L98.3728 48.9263C98.3728 52.0209 97.9289 53.6815 96.4242 54.6947C95.3489 55.419 93.0584 56.3917 90.5475 57.2258C90.5014 57.4294 90.4554 57.6418 90.4077 57.8633C94.6591 56.5393 95.3811 56.0804 96.3458 55.468C96.448 55.4029 96.5532 55.336 96.6661 55.2661C97.554 54.7324 98.2016 53.8754 98.4712 52.8751C98.9451 51.1927 99.0925 49.4351 98.9044 47.6974C98.763 44.3531 97.829 37.398 97.7253 36.8504C97.4788 35.5181 97.2768 34.6391 97.1408 34.0459C96.9565 33.2402 96.8927 32.9615 97.0003 32.7901C97.0571 32.6995 97.1616 32.6389 97.3221 32.5462C97.6278 32.3694 98.1355 32.0756 98.8974 31.2326C100.08 29.9247 99.9643 28.8767 99.9044 28.3359C99.8768 28.0893 99.8614 27.9482 99.9858 27.9359C100.391 27.8957 100.689 27.8653 100.92 27.8417L100.921 27.8415L100.922 27.8415C101.269 27.8059 101.469 27.7855 101.669 27.7693C101.94 27.7475 102.211 27.7335 102.848 27.7005L103.04 27.6906L103.462 27.6686C103.687 27.657 108.055 27.2092 108.561 27.1573L108.562 27.1572L108.564 27.157L108.565 27.1569L108.566 27.1568L108.608 27.1525C110.634 27.0423 112.642 26.7177 114.6 26.1839C116.312 25.6387 117.815 23.7098 118.372 22.995C118.494 22.8387 118.57 22.7405 118.594 22.7275C118.626 22.7092 118.827 22.6893 119.153 22.657C120.743 22.4994 125.311 22.0468 127.824 20.0469C132.103 16.6442 126.951 11.922 116.337 10.3121ZM60.9092 10.2614C56.896 6.39792 67.3927 2.83398 79.5354 5.0384C86.4114 6.28501 91.4977 9.80056 86.8522 12.3959C80.726 15.8162 65.3496 14.5358 60.9092 10.2614ZM25.3674 18.3494C27.409 15.0873 34.5714 12.9866 38.3059 12.9559C38.4004 12.9551 38.5062 12.9541 38.6219 12.953C40.4724 12.9356 44.8798 12.894 47.2856 13.5634C60.1012 17.1289 52.7014 24.6255 38.6554 25.478C31.9315 25.8851 22.4832 22.9572 25.3674 18.3494ZM64.9878 40.4965C63.5499 40.0672 63.4985 39.5126 63.8894 36.1645C63.9174 35.9167 63.925 35.9202 64.2428 36.0686C64.799 36.3282 66.3051 37.0312 70.5319 37.607C72.4047 37.8613 72.7417 37.8769 73.1052 37.8937C73.431 37.9087 73.7781 37.9248 75.2718 38.1147C75.7949 38.1811 76.1591 38.1832 76.4167 38.1847C76.6876 38.1863 76.841 38.1871 76.937 38.2614C77.0622 38.3582 77.0921 38.579 77.1605 39.0869V39.0886V39.0892V39.091L77.1613 39.0913V39.0921C77.1881 39.2938 77.2212 39.5404 77.2688 39.8421C77.2688 39.8874 77.4992 41.6225 77.5322 41.866C77.5768 42.1902 71.5803 42.4682 64.9878 40.4965ZM77.8579 43.9529C77.8779 44.2115 77.5876 44.1923 76.8809 44.1456C76.0048 44.0876 74.4893 43.9875 72.1333 44.3216C72.1223 44.3231 72.112 44.3248 72.1025 44.3264C72.0697 44.3318 72.0452 44.3358 72.0245 44.3287C71.9631 44.3079 71.9349 44.1893 71.8233 43.7196C71.7618 43.4609 71.675 43.0958 71.5434 42.5819C71.5022 42.4214 71.52 42.4232 72.0621 42.4775C72.4283 42.5142 73.0339 42.5749 74.0221 42.6257C75.3924 42.6962 76.238 42.635 76.7684 42.5965C77.2304 42.5631 77.4531 42.547 77.5753 42.6501C77.6897 42.7463 77.7158 42.9465 77.7673 43.3335C77.7896 43.5023 77.8164 43.7068 77.8579 43.9537V43.9529ZM70.4773 50.2428C70.0897 50.2334 69.7212 50.0724 69.4507 49.7944C69.1803 49.5164 69.0297 49.1436 69.031 48.7558C69.085 48.3757 69.2701 48.0264 69.5542 47.7683C69.8383 47.51 70.2037 47.3592 70.5872 47.3417C70.7811 47.344 70.9726 47.3851 71.1504 47.4626C71.3282 47.54 71.4887 47.6523 71.6223 47.7928C71.7561 47.9332 71.8603 48.0991 71.9289 48.2805C71.9974 48.4619 72.029 48.6552 72.0217 48.849C72.0143 49.0428 71.9682 49.2332 71.8862 49.4089C71.8041 49.5846 71.6876 49.7421 71.5437 49.8721C71.3997 50.002 71.2312 50.1019 71.0481 50.1657C70.8649 50.2295 70.6709 50.2559 70.4773 50.2436V50.2428ZM79.3941 54.9865C78.8219 55.1478 73.5428 55.2638 72.6049 54.942C73.4096 54.45 74.0435 53.7226 74.4207 52.8582C74.8919 51.8496 75.108 50.7405 75.0497 49.6289C74.9914 48.5171 74.6607 47.4368 74.0866 46.483C73.6128 45.8004 72.9802 45.2432 72.2432 44.8593C72.6718 44.5781 77.6344 44.5428 77.9209 44.8063C77.9962 44.8646 79.4924 54.9873 79.3941 54.9873V54.9865ZM85.449 40.3882C84.6755 40.6697 83.889 40.9122 83.0909 41.1148C82.6984 41.2109 82.4188 41.2872 82.2184 41.3417C81.8804 41.4339 81.7698 41.4641 81.726 41.423C81.7045 41.4031 81.6991 41.3664 81.6899 41.3119L81.6868 41.2907C81.511 40.2188 81.3627 39.5257 81.2667 39.0753C81.1515 38.5337 81.1108 38.3433 81.1853 38.2674C81.2268 38.2261 81.3013 38.2187 81.4165 38.2071L81.4656 38.2022C83.8306 37.9557 84.8698 37.6226 85.346 37.4699C85.7147 37.3519 85.7462 37.3418 85.7931 37.5632C85.8921 38.0184 85.9298 38.485 85.9052 38.9503C85.906 39.0483 85.909 39.1434 85.9121 39.2352V39.2357C85.929 39.7845 85.9428 40.2126 85.449 40.3882ZM82.8766 41.7362C83.1355 41.6749 83.1362 41.6835 83.2069 43.2054V43.206C83.2177 43.4394 83.2299 43.7084 83.2453 44.0182C83.253 44.175 83.2614 44.3122 83.2683 44.4314V44.4329V44.4335C83.3052 45.0488 83.3137 45.1908 83.1047 45.1419C82.9573 45.1074 82.8351 45.0863 82.733 45.0688C82.5532 45.0378 82.4357 45.0176 82.3535 44.9534C82.1999 44.8334 82.1654 44.56 82.0663 43.777C82.0194 43.4014 81.9572 42.9085 81.8604 42.2593C81.8566 42.2357 81.8528 42.2143 81.8497 42.1949C81.8389 42.1403 81.832 42.1003 81.8435 42.067C81.875 41.9759 82.0486 41.9344 82.6969 41.7794L82.8766 41.7362ZM82.4695 45.4999C82.5563 45.5018 82.6424 45.5147 82.7261 45.5383L82.8843 45.5849L83.0202 45.625L83.0233 45.6257L83.0241 45.6259C84.0994 45.942 84.2707 45.9924 84.4812 46.4162C84.9858 47.5404 85.26 48.7548 85.2869 49.987C85.3476 51.3161 84.8929 52.6172 84.018 53.6193C84.0057 53.6362 83.9089 53.6193 83.8951 53.5978C83.637 53.1461 82.3582 45.7808 82.3382 45.6663V45.6658V45.665C82.3205 45.539 82.3589 45.4945 82.4695 45.4983V45.4999ZM81.0509 37.7097C81.0386 37.6993 81.0294 37.6913 81.0217 37.6821C80.9963 37.6521 80.9864 37.6086 80.9433 37.4239C80.9249 37.344 80.9011 37.2377 80.8665 37.0946C80.7137 36.4562 80.5578 36.1175 80.4779 35.9434C80.4057 35.7864 80.3949 35.763 80.5032 35.7743C82.8136 35.9514 85.1363 35.8925 87.4345 35.5984C88.5121 35.3657 85.9981 37.4303 81.1246 37.7775V37.779C81.0916 37.744 81.0685 37.7243 81.0509 37.7097ZM96.64 32.2826C89.6174 36.5962 74.0582 36.123 68.5425 31.6765C66.5555 30.0774 66.2198 28.0097 68.4657 26.1593C72.7916 22.5992 79.7344 22.0685 85.3468 22.3535C95.6922 22.8773 103.719 27.9306 96.637 32.281L96.64 32.2826ZM116.756 24.1085C114.63 26.124 114.354 26.2346 101.395 27.3514C100.975 27.3876 100.665 27.4294 100.431 27.4609C99.8445 27.5398 99.737 27.5544 99.5826 27.2546C98.687 25.5134 96.554 24.4027 94.7436 23.6615C94.0746 23.3876 93.6222 23.2517 93.3272 23.163C92.8879 23.0311 92.798 23.004 92.8618 22.7836L92.8802 22.7206C93.0054 22.2882 93.1775 21.6957 92.785 21.5654C91.8617 21.2601 91.8418 21.4012 91.8126 21.6053L91.8095 21.6266L91.8072 21.6422C91.7957 21.7122 91.7788 21.7808 91.7619 21.8494C91.7442 21.9202 91.7273 21.991 91.7158 22.0631L91.712 22.0861C91.6152 22.705 91.6067 22.757 90.8709 22.5317C90.8271 22.5184 90.7757 22.5224 90.7242 22.5262C90.6236 22.5338 90.5253 22.5413 90.4915 22.418C90.4738 22.3543 90.4846 22.3161 90.5137 22.2131C90.5445 22.106 90.5944 21.929 90.6528 21.5808C90.6589 21.5447 90.6766 21.5099 90.6942 21.4747C90.7626 21.3381 90.8348 21.1953 90.2595 20.9486C89.4522 20.6015 89.3447 21.19 89.2571 21.673C89.2003 21.9875 89.1511 22.2573 88.9223 22.1952C88.7049 22.1362 88.529 22.1193 88.3976 22.1068C88.1787 22.0859 88.0835 22.0767 88.1234 21.9034C88.1373 21.8418 88.1511 21.783 88.1649 21.7265C88.3585 20.9068 88.4268 20.6143 87.3262 20.4993C87.0858 20.4739 87.0189 20.5392 86.9751 20.7766C86.939 20.9678 86.9099 21.1267 86.8861 21.2587C86.7747 21.8728 86.7685 21.905 86.6241 21.9018C86.1341 21.8903 84.8491 21.8473 84.2661 21.7951C79.5562 21.3711 68.6147 22.9679 66.567 27.621C64.8242 31.5821 71.3069 34.4232 75.4 35.0907C76.3671 35.2489 76.6781 36.5163 76.8817 37.4894C76.884 37.4993 76.8863 37.5089 76.8878 37.5181C76.8978 37.5624 76.9063 37.5977 76.894 37.624C76.8486 37.726 76.5072 37.6955 74.8451 37.5473H74.8445L74.8442 37.5472L74.8436 37.5471H74.8432L74.8428 37.547H74.8422L74.8417 37.547L74.8412 37.5469L74.8342 37.5463C74.4779 37.5145 74.0612 37.4773 73.5743 37.4349C71.8922 37.2882 65.04 36.4948 63.9186 35.2382C62.7942 33.8696 61.8237 32.3816 61.0245 30.8009C61.4551 30.7724 61.906 30.7618 62.3129 30.7523C63.2327 30.7306 63.928 30.7144 63.6575 30.5083C63.466 30.3623 62.2212 30.3326 60.066 30.2812C56.7222 30.2015 51.187 30.0696 43.9944 29.37C36.7153 28.662 36.4387 28.1151 35.5611 26.3804C35.5075 26.2744 35.4516 26.164 35.3918 26.0487C35.3011 25.8736 36.2482 25.9389 36.3956 25.9558C41.3483 26.5134 50.8096 24.6693 53.7491 20.5607C54.2745 19.828 61.4262 19.0676 63.4962 18.9124C64.7054 18.822 65.5974 18.774 66.2626 18.7382C68.0839 18.6403 68.2042 18.6338 68.4765 18.0982C68.8335 17.4006 69.2153 16.7181 69.598 16.0338C69.8533 15.5775 70.1091 15.1202 70.3583 14.6572C70.4986 14.3967 70.599 14.412 71.2179 14.5062C71.7505 14.5873 72.6672 14.7268 74.3239 14.7993C75.0591 14.8314 75.5804 14.8437 75.954 14.8524C76.884 14.8743 76.8993 14.8747 77.0192 15.1065C77.0798 15.2242 77.1359 15.3353 77.1889 15.4405C77.9601 16.9723 78.0891 17.229 82.7722 17.9369C83.2376 18.0077 83.7062 18.0452 84.4059 18.1015C85.9843 18.2282 88.7418 18.4496 95.3082 19.3602C96.0509 19.4633 96.8075 19.5849 97.5341 19.7019C99.7254 20.0544 101.651 20.3642 102.155 19.9939C102.401 19.8129 102.476 19.8478 102.97 20.0772C103.377 20.2666 104.071 20.5887 105.381 21.0316C110.526 22.7676 115.083 22.7175 117.012 22.6963C117.608 22.6897 117.953 22.6859 117.988 22.7383C118.054 22.8315 117.001 23.8636 116.79 24.0711L116.767 24.0932L116.753 24.107L116.756 24.1085ZM113.884 22.1445C103.067 21.5124 93.2228 15.4453 102.144 11.8099C111.907 7.82964 128.593 12.4873 128.72 17.3663C128.603 21.7651 118.61 22.4211 113.884 22.1445ZM62.2195 21.8143C61.2402 21.898 61.1957 22.2344 61.2802 22.6592C61.4554 23.5339 61.7086 24.3911 62.0367 25.2207L62.0378 25.2233C62.1797 25.5803 62.1854 25.5947 62.6727 25.584C62.8206 25.548 62.9706 25.5224 63.122 25.5072C63.4605 25.4731 63.3065 24.9724 63.0687 24.1993C62.8888 23.6144 62.661 22.8736 62.5621 22.0608C62.5375 21.855 62.4453 21.7951 62.2195 21.8143ZM58.8492 22.7905C58.6111 22.4364 59.2563 22.2528 59.6726 22.176C60.0793 22.1004 60.1087 22.2114 60.5562 23.9019C60.663 24.3056 60.7937 24.7997 60.9592 25.4028C61.033 25.6707 60.8273 25.6665 60.5627 25.661C60.5049 25.6598 60.4442 25.6586 60.3831 25.6601C60.3472 25.6611 60.3095 25.6641 60.2707 25.6672C60.0044 25.6886 59.685 25.7142 59.5059 25.1109C58.9859 23.3696 58.8684 22.8973 58.8492 22.7905ZM57.2461 22.7287C56.6427 22.8715 56.5131 22.9022 56.5172 23.3451C56.5112 23.418 56.5148 23.4913 56.528 23.5632C56.6059 23.8534 56.673 24.1088 56.732 24.3334C57.0174 25.4201 57.1138 25.7869 57.3316 25.8854C57.4425 25.9356 57.585 25.9161 57.8002 25.8866C57.8999 25.8729 58.0152 25.8572 58.1502 25.8452C58.601 25.8056 58.4308 25.3215 58.1815 24.6126C58.0095 24.1233 57.7999 23.5269 57.7308 22.8957C57.7108 22.7152 57.5956 22.6814 57.4443 22.6814C57.3732 22.6987 57.3072 22.7143 57.2461 22.7287ZM72.6792 25.492C71.6107 26.0584 69.3981 27.2314 69.8068 28.8469C70.3037 30.8112 73.2065 31.6957 74.7592 32.1688C75.5513 32.4102 75.992 32.5445 75.5828 32.6605C74.9246 32.8463 69.223 31.443 69.233 28.5013C69.2399 26.3821 72.8807 24.7799 73.1618 25.22C73.0719 25.2838 72.9 25.3749 72.6792 25.492ZM91.6106 24.8236C92.7758 25.1223 93.8933 25.5844 94.9287 26.1962C95.7882 26.7216 96.9549 27.8361 96.7629 28.7647C96.4019 30.5152 94.802 31.2058 93.7973 31.6393C93.4486 31.7898 93.1713 31.9093 93.0431 32.0314C93.5892 32.4531 97.3351 30.9445 97.392 28.6226C97.4703 25.5126 90.6965 24.1393 91.6106 24.8236ZM76.8847 25.7911C76.07 26.1242 74.6249 26.7146 74.178 27.7938C74.0627 28.1667 74.0734 28.5671 74.2083 28.9333C74.3432 29.2995 74.5949 29.6111 74.9246 29.8201C75.8738 30.5766 77.159 30.9617 78.0254 31.2213C78.4993 31.3633 78.848 31.4678 78.9478 31.5751C78.1859 32.1174 71.9436 30.2809 73.7532 27.3622C74.1642 26.8181 74.6799 26.3619 75.27 26.0202C75.86 25.6785 76.5125 25.4585 77.1889 25.3728C77.2027 25.3702 77.2173 25.3664 77.2319 25.3628C77.3103 25.3423 77.3909 25.3211 77.4562 25.4804C77.4823 25.5469 77.245 25.6439 76.8847 25.7911ZM84.167 27.4428C81.2145 26.6663 79.2674 28.5581 81.3934 29.3423C82.4035 29.7115 83.5049 29.7459 84.5357 29.4406C85.7239 29.0919 85.9559 27.9129 84.167 27.4428ZM81.3335 28.7908C79.994 28.0097 82.7161 27.3568 84.369 27.9782C86.3077 28.7079 83.0318 29.7686 81.3335 28.7824V28.7908ZM90.0322 25.687C90.7995 25.7468 91.5461 25.9669 92.2235 26.3329L92.2819 26.3703L92.3403 26.4072C93.0338 26.8475 93.6391 27.2316 93.719 28.3207C93.6153 30.1112 90.9876 31.4576 90.5767 31.2118C90.619 31.1526 90.7803 31.0412 91.0022 30.8872C91.8817 30.2782 93.722 29.0039 92.9924 27.6656C92.5753 26.9012 91.4024 26.4581 90.6259 26.165C90.1758 25.9951 89.8593 25.8755 89.9008 25.773C89.9139 25.7488 89.9323 25.7283 89.9553 25.7132C89.9784 25.6983 90.0045 25.6892 90.0322 25.687ZM27.4727 19.0299C27.82 17.8521 29.0355 17.1096 29.7442 16.6767C30.0684 16.4786 30.2866 16.3453 30.2671 16.2648C30.178 15.8907 26.8437 17.4169 26.932 19.5392C26.7292 22.2636 32.5667 23.8113 32.8832 23.1292C32.9031 23.086 32.6345 23.0116 32.2066 22.893C30.6063 22.4499 26.777 21.3893 27.4727 19.0299ZM51.5969 18.4877C51.7037 17.1727 50.04 16.0858 48.8111 15.5927C47.8008 15.1872 47.2635 15.0642 46.9872 15.001C46.7925 14.9564 46.7275 14.9416 46.718 14.8784C46.6496 14.4114 52.0678 15.5374 52.1377 18.3563C52.1922 20.5531 48.7273 22.2106 48.47 21.7689C48.4481 21.7312 48.6081 21.6451 48.8661 21.5063C49.6792 21.069 51.4651 20.1081 51.5969 18.4877ZM35.722 22.0009C35.2457 21.865 34.8664 21.7621 34.5528 21.677C33.6019 21.419 33.2553 21.3249 32.6442 20.9755C31.138 20.1145 30.989 19.066 31.5136 18.2649C31.9982 17.5252 32.7537 17.1297 33.3298 16.8281C33.7107 16.6288 34.0131 16.4705 34.1067 16.2809C34.0905 16.2728 34.0779 16.264 34.066 16.2556C33.9798 16.1951 33.9312 16.1609 32.8216 16.632C30.8338 17.4769 30.2916 19.1236 31.055 20.275C31.9629 21.646 33.9784 22.2321 35.7112 22.1637C35.7329 22.1651 35.7541 22.158 35.7703 22.1437C35.7866 22.1294 35.7966 22.1093 35.798 22.0877C35.7995 22.0661 35.7922 22.0448 35.7779 22.0286C35.7637 22.0123 35.7436 22.0023 35.722 22.0009ZM37.0316 18.9562C36.984 18.2757 37.9687 17.8816 38.6531 17.7872C41.7177 17.3663 42.8507 19.6429 39.1569 20.0469C39.0995 20.0382 39.0364 20.0294 38.9691 20.02C38.2628 19.9216 37.087 19.7577 37.0316 18.9562ZM40.5479 18.3748C39.2744 17.758 36.2482 18.5645 37.9687 19.3564V19.3664C39.15 19.9017 42.1563 19.1521 40.5479 18.3748ZM48.0384 17.4131C49.0068 18.6033 47.6697 19.7746 46.8008 20.5357C46.5079 20.7923 46.2682 21.0023 46.188 21.1506C46.2086 21.1555 46.2249 21.162 46.2401 21.168C46.313 21.1971 46.3598 21.2158 46.7395 20.997C48.5364 19.9675 48.692 19.1665 48.8758 18.2197L48.8902 18.1459C48.8018 17.8684 48.6945 17.5974 48.5691 17.3348C48.0061 16.1872 45.3746 15.6557 45.304 15.9299C45.2658 16.0715 45.5766 16.1709 46.0151 16.3111C46.6446 16.5124 47.5372 16.7979 48.0384 17.4131ZM124.578 18.6528C126.957 16.7426 123.802 14.4928 120.932 13.4651C120.855 13.4375 120.719 13.2954 121.108 13.3345C122.221 13.4459 125.736 14.9898 125.972 16.9676C126.246 19.275 122.055 20.3987 121.846 20.0653C121.758 19.9252 121.926 19.88 122.265 19.7887C122.76 19.6552 123.62 19.4232 124.578 18.6528ZM106.562 18.4738C106.326 18.3852 106.092 18.3 105.861 18.2161C104.428 17.6946 103.122 17.2195 102.223 16.251C101.882 15.9083 101.673 15.4575 101.631 14.9767C101.944 13.6693 103.215 13.227 104.124 12.9108C104.51 12.7763 104.83 12.6646 104.985 12.5188C104.955 12.5052 104.929 12.4927 104.906 12.4815C104.812 12.435 104.766 12.4123 104.663 12.442C103.102 12.8414 101.249 13.4605 101.124 15.0627C101.176 15.43 101.302 15.7828 101.495 16.0997C101.688 16.4166 101.944 16.6909 102.246 16.9062C103.455 17.7949 104.84 18.4127 106.31 18.7173C106.764 18.8187 106.959 18.6228 106.562 18.4738ZM105.708 15.6082C105.764 15.7669 105.853 15.9116 105.971 16.0321C106.783 16.9729 107.879 17.3485 108.797 17.663C109.222 17.8086 109.609 17.9411 109.912 18.1105C109.906 18.114 109.9 18.1177 109.894 18.1216L109.888 18.1254C109.88 18.131 109.872 18.1367 109.863 18.1425L109.863 18.143C109.82 18.1726 109.776 18.2035 109.737 18.2035C104.511 17.4699 103.081 13.6879 108.673 12.9613C108.678 12.9618 108.684 12.9623 108.691 12.9626L108.716 12.964C108.79 12.9677 108.885 12.9725 108.885 13.0319C108.885 13.186 108.575 13.2699 108.136 13.3888C107.56 13.5448 106.76 13.7613 106.147 14.2762C106.008 14.371 105.891 14.4951 105.806 14.6396C105.72 14.7842 105.667 14.9458 105.65 15.1131C105.633 15.2805 105.653 15.4495 105.708 15.6082ZM112.096 15.0589C110.575 15.4353 111.416 16.9307 114.004 17.0744C114.917 17.1258 116.299 16.685 115.842 15.9053C115.275 14.9383 113.222 14.7809 112.096 15.0589ZM115.342 16.3723C114.838 16.7971 113.397 16.6673 112.666 16.4376C112.396 16.3329 112.142 16.1871 111.917 16.0052C111.71 15.8562 111.718 15.6788 111.948 15.5559C113.216 14.8792 116.091 15.7402 115.342 16.3723ZM119.528 14.1587C120.448 14.2509 122.657 15.2747 122.587 16.625C122.633 18.4124 119.46 19.3671 119.557 19.076C119.567 19.0474 119.696 18.9725 119.892 18.8592C120.791 18.3387 123.092 17.0078 121.631 15.6334C120.973 15.109 120.244 14.6824 119.465 14.3669C119.442 14.355 119.423 14.3354 119.413 14.3115C119.403 14.2876 119.402 14.2609 119.409 14.2361C119.417 14.2113 119.433 14.19 119.455 14.1758C119.477 14.1617 119.502 14.1556 119.528 14.1587ZM75.8632 8.06545C75.2091 7.64364 74.4346 7.44828 73.6588 7.50933C71.4428 7.50933 70.8168 8.93339 72.1802 9.52635C73.1627 9.94435 74.262 9.99881 75.281 9.67997C75.507 9.58296 75.7199 9.45784 75.9146 9.30745C76.0057 9.22972 76.078 9.13232 76.1259 9.02256C76.1739 8.9128 76.1962 8.7936 76.1912 8.67393C76.1863 8.55426 76.1541 8.43728 76.0973 8.3319C76.0405 8.22644 75.9604 8.13534 75.8632 8.06545ZM72.0327 8.92033C71.3153 8.3266 73.522 7.55388 75.0175 8.13073C77.2511 8.9933 73.5259 10.157 72.0327 8.92187V8.92033ZM65.4162 6.38426C64.7118 6.66476 63.7069 7.06495 63.1743 7.83502C61.8528 9.74641 65.0763 10.8737 66.851 11.4943C67.6136 11.761 68.1086 11.9341 67.8605 12.0357C67.5363 12.1694 62.7411 11.1547 62.3901 8.72524C62.4216 7.12759 64.2773 6.37486 65.8012 5.97929C65.8563 5.9645 65.914 5.9632 65.9696 5.9755C66.0253 5.9878 66.0771 6.01334 66.1207 6.04996C65.9986 6.1523 65.7389 6.25571 65.4162 6.38426ZM85.545 10.0049C85.0035 11.1639 83.5057 11.6964 82.6823 11.9889C82.415 12.0841 82.2184 12.1539 82.15 12.2116C82.1953 12.235 82.2314 12.2538 82.2598 12.2689C82.3543 12.3184 82.3704 12.327 82.3843 12.3245C82.3873 12.324 82.3904 12.323 82.3935 12.3218C82.3981 12.3203 82.4042 12.3184 82.4119 12.3168C83.9696 12.0011 86.184 11.0879 86.1863 9.56476C86.1863 7.34881 81.5179 6.13216 81.1899 6.38179C81.1922 6.38366 81.2222 6.39331 81.2736 6.41038C81.9495 6.63198 86.4329 8.10293 85.545 10.0049ZM69.1452 6.76743C68.3566 7.03752 67.2284 7.42394 66.875 8.18296C66.1336 9.7766 69.0257 10.67 70.3593 11.082C71.0016 11.2804 71.2823 11.3672 70.6217 11.3667C65.5599 10.7768 64.3064 7.1806 69.7599 6.32802C69.775 6.32567 69.7818 6.32097 69.7866 6.31764C69.7888 6.31611 69.7906 6.31488 69.7926 6.31429C69.801 6.31178 69.813 6.32114 69.8761 6.37043L69.9351 6.41635C69.8511 6.52567 69.541 6.63191 69.1452 6.76743ZM82.2291 9.7491C81.7951 10.409 81.0271 10.8296 80.5009 11.1178C80.2121 11.2758 79.9963 11.3941 79.9471 11.4904C80.2981 11.644 82.9242 10.6001 82.9173 9.20837C82.9096 7.65068 79.7574 6.86953 79.6783 7.14374C79.656 7.2202 79.9272 7.33085 80.3066 7.48575C81.289 7.88641 82.9957 8.58306 82.2291 9.7491Z" fill="black"/>
</g>
<g id="Group_2">
<path id="Subtract_2" fill-rule="evenodd" clip-rule="evenodd" d="M49.2676 69.9386C49.565 70.1146 49.6683 69.8409 49.7583 69.6026C49.7668 69.5799 49.7753 69.5577 49.7837 69.5361C49.938 69.1394 50.0573 68.8241 50.152 68.574C50.4252 67.8527 50.4931 67.6731 50.5991 67.6468C50.6342 67.6381 50.6736 67.6463 50.7259 67.657C50.7382 67.6596 50.7514 67.6623 50.7653 67.665C59.7717 68.4063 68.7333 69.6156 77.6139 71.2881C79.4635 71.6441 80.7093 71.8617 81.5458 72.0078C82.8562 72.2365 83.1611 72.2898 83.2026 72.4243C83.2148 72.4653 83.2033 72.5137 83.188 72.5768V72.5772V72.5781C83.1864 72.5849 83.1841 72.592 83.1826 72.5992C83.181 72.6058 83.1795 72.6124 83.178 72.6194L83.1741 72.6369C82.9783 73.5393 82.9184 73.9739 82.8469 74.49C82.7824 74.9596 82.7079 75.4966 82.5136 76.515C82.4575 76.8114 82.6226 77.4874 82.8823 77.1625C82.9691 77.0534 83.2079 75.7401 83.5582 73.8113V73.8108C84.2518 69.9935 85.3839 63.7657 86.6459 59.6899C88.4125 53.9876 88.9502 52.5267 91.4173 52.274C91.7007 52.2323 91.9903 52.2554 92.2645 52.3414C92.5379 52.4274 92.7883 52.5744 92.9972 52.771C93.2062 52.6924 93.4043 52.5873 93.5871 52.4584C93.2469 52.1351 92.8313 51.9017 92.3774 51.7795C91.9242 51.6571 91.448 51.6497 90.991 51.7579C90.428 51.8421 89.8911 52.0527 89.4202 52.3738C88.9502 52.6949 88.5585 53.1182 88.275 53.612C87.8941 54.2239 87.6014 54.8871 87.4079 55.5814C85.3517 60.8812 84.3485 65.9837 83.3631 71.5784C83.2801 71.5675 83.0451 71.5198 82.6603 71.4416C80.4712 70.9974 73.432 69.5687 61.8719 68.3094C61.6576 68.2856 61.5209 68.2411 61.5209 68.0283C61.5209 67.9369 61.5801 60.3044 61.7222 58.5278C61.7942 57.704 61.8216 56.8768 61.8043 56.05C61.8012 55.9242 61.7983 55.7944 61.7954 55.6613C61.7434 53.2911 61.6681 49.8598 59.4755 49.3376C58.5015 49.1072 57.8894 49.5627 58.4217 50.7509C58.698 51.4996 58.7496 52.3129 58.5699 53.0905C58.4254 54.3368 58.2452 55.2786 58.0557 56.2694C57.6407 58.4386 57.1807 60.8437 56.9508 67.1965C56.9486 67.2586 56.9494 67.3144 56.9501 67.364C56.9519 67.4793 56.953 67.5619 56.9145 67.6166C56.8169 67.755 56.4641 67.7136 55.2174 67.5669L55.217 67.5669C54.8988 67.5295 54.5225 67.4852 54.0773 67.4354C52.7241 67.2837 51.9005 67.234 51.4092 67.2043C50.6983 67.1614 50.6829 67.1604 50.7646 66.9538C53.4113 60.272 54.4233 58.5934 55.7388 56.4116C55.9436 56.072 56.1556 55.7203 56.3824 55.3356C56.236 55.2925 56.0946 55.2338 55.9607 55.1605C52.8208 59.6193 48.8758 69.7066 49.2676 69.9386ZM57.6782 63.7347C57.9573 60.2039 58.3923 57.6873 58.7213 55.7842C59.1734 53.1685 59.4252 51.7119 58.7965 50.3745C58.6198 49.9997 58.4985 49.6725 58.8733 49.6725C59.1027 49.6925 59.3256 49.7588 59.5285 49.8676C60.9694 50.532 61.2306 53.0414 61.1999 54.6098C61.1553 56.8526 60.9994 67.9024 60.9994 67.9193C60.9951 68.1809 60.8143 68.1527 60.1591 68.0502C59.6433 67.9696 58.8335 67.8429 57.5844 67.7756C57.5679 67.7747 57.5526 67.7751 57.5382 67.7755C57.5106 67.7762 57.487 67.7767 57.4675 67.768C57.3503 67.716 57.381 67.3314 57.5954 64.6401C57.6175 64.3634 57.6414 64.0623 57.6674 63.7347H57.6782ZM102.362 77.2324C101.296 75.9458 100.387 75.7046 98.8946 75.3382C98.8247 75.3212 98.7648 75.3121 98.7141 75.3044C98.6343 75.2923 98.5759 75.2835 98.5344 75.2521C98.4238 75.168 98.4369 74.9222 98.4829 74.0176V74.017V74.0151V74.0144C98.496 73.7485 98.5129 73.4259 98.5298 73.034C98.5705 72.0903 98.327 68.1429 98.2832 67.4328C98.2786 67.3632 98.2763 67.3248 98.2763 67.3232C98.0497 64.2859 97.552 61.2748 96.7901 58.3258C96.595 57.397 96.3185 56.4872 95.9644 55.6068C95.873 55.6524 95.7793 55.6959 95.6879 55.7381L95.6871 55.7387L95.6863 55.739C95.6548 55.7533 95.6241 55.7678 95.5942 55.7819C95.6418 55.8733 95.7524 56.1997 95.78 56.2858C97.4099 61.2868 97.8339 69.4969 97.8539 74.6431C97.8539 74.6882 97.8554 74.7291 97.8569 74.7661C97.8608 74.8635 97.8639 74.9324 97.8316 74.9728C97.7525 75.0703 97.4668 75.0009 96.4913 74.7638L96.4905 74.7637C96.1241 74.6745 95.6594 74.5616 95.0711 74.425C94.8537 74.3747 94.8683 74.2046 94.8983 73.8593C94.9121 73.7037 94.929 73.5124 94.929 73.2805C94.929 70.3963 94.8522 59.3405 93.6424 56.6944C93.4842 56.7543 93.3175 56.8227 93.1593 56.8895L93.1624 56.8958C93.1962 56.9568 93.3037 57.1554 93.3352 57.2405C93.9804 59.0071 94.5895 67.2257 94.2462 74.0094C94.2346 74.2368 94.1632 74.2194 93.5948 74.0797C93.4965 74.0555 93.3844 74.0279 93.2546 73.9972C92.2399 73.7567 91.4726 73.5747 90.8896 73.4361C89.0708 73.0044 89.0278 72.9942 88.7827 72.9541C88.6306 72.9295 88.636 72.8681 88.6706 72.4922V72.4915C88.6844 72.3388 88.7036 72.134 88.7182 71.8588C89.2436 62.0522 90.5463 57.0972 91.1884 54.6552C91.3543 54.0264 91.4757 53.5643 91.5287 53.2288C91.5294 53.2146 91.5256 53.2005 91.5179 53.189C91.5095 53.1774 91.4972 53.1692 91.4833 53.1658L91.4757 53.1639C91.1945 53.0929 90.9603 53.0334 89.8381 57.825C88.8803 62.354 88.3303 66.9597 88.1951 71.5869C88.1921 71.6285 88.1852 71.7069 88.1759 71.8134V71.8139C88.1022 72.673 87.8702 75.3597 88.1951 75.3836C88.6721 75.4195 88.6545 74.5831 88.6422 73.9873C88.6399 73.8836 88.6383 73.7871 88.6391 73.7037C88.6391 73.6816 88.6376 73.661 88.636 73.6421C88.633 73.6067 88.6306 73.5776 88.6429 73.5574C88.6967 73.4676 89.0362 73.5486 90.8835 73.9894C92.5095 74.3774 95.3023 75.044 100.096 76.1178C102.59 76.6763 104.628 82.1965 105.343 84.6897C107.354 91.7116 107.387 107.674 96.0896 107.661C95.2116 107.661 89.7958 106.847 89.4732 106.794C89.3419 106.772 89.2252 106.754 89.1215 106.737C88.5761 106.649 88.3941 106.621 88.3664 106.539C88.3526 106.498 88.3779 106.444 88.4148 106.363L88.4317 106.327C88.9548 105.181 89.0085 105.033 89.0362 104.957C89.0462 104.929 89.0531 104.91 89.08 104.852C89.1906 104.612 89.0792 104.252 88.8703 103.581C88.5147 102.438 87.8779 100.393 87.5822 96.5007C87.2212 91.7615 87.4025 89.074 87.5046 87.5632C87.5861 86.3503 87.6168 85.8956 87.275 85.7474C83.9054 84.2696 54.2347 77.1978 41.5121 76.0441C40.8869 75.988 40.373 75.985 40.022 76.6363C39.5602 77.8722 39.3177 79.1787 39.3054 80.4983C39.0331 88.0217 39.9884 91.2554 40.3263 92.3998C40.404 92.6625 40.449 92.8146 40.4391 92.8837C40.4235 92.9951 40.3248 93.0934 40.226 93.1917C40.1831 93.2347 40.1403 93.277 40.1042 93.3208C40.0056 93.4398 39.9218 93.5435 39.8497 93.6326C39.4638 94.1088 39.4115 94.1741 39.2109 94.0405C37.8814 93.1579 37.4353 89.6677 37.067 86.7866C36.9969 86.239 36.9297 85.7128 36.8598 85.2312C36.0702 79.7886 37.5833 70.6375 43.8816 67.4561C43.9034 67.4452 43.922 67.4352 43.9391 67.4259C44.098 67.34 44.1375 67.3185 45.5092 67.2541C45.5277 67.2532 45.545 67.2516 45.5608 67.2499C45.6008 67.246 45.6314 67.243 45.6481 67.2569C45.7032 67.3026 45.6052 67.533 45.1825 68.5256C45.0077 68.9362 44.7773 69.4773 44.4792 70.1897C44.4501 70.2592 44.4204 70.3268 44.3917 70.3917C44.2152 70.7919 44.0815 71.0952 44.3947 71.1936C44.6054 71.2605 44.6902 71.0178 44.8406 70.5872C44.9216 70.3554 45.0216 70.0691 45.1705 69.7473C46.9456 65.9138 51.8836 56.1682 54.6311 53.2626C54.5589 53.1366 54.3891 52.7694 54.3768 52.7364C50.6462 57.5255 50.1193 58.4856 45.9063 66.7925C45.0224 66.6866 44.1264 66.8305 43.3202 67.208C33.2198 72.7797 36.1877 89.68 37.9044 93.2793C38.1223 93.7424 38.4658 94.1357 38.896 94.4138L38.9138 94.4268L38.9318 94.4391C38.9904 94.4813 39.0279 94.5075 39.0394 94.5428C39.0596 94.6058 38.9973 94.6949 38.8239 94.943C38.7597 95.0351 38.6803 95.1488 38.5841 95.2909C36.7846 98.1444 35.334 101.204 34.2636 104.403C33.4602 106.813 33.1599 108.746 33.3419 109.716C33.3934 109.985 33.4525 110.189 34.0969 110.496C35.5002 111.164 43.5483 114.567 51.9704 117.704C52.6709 117.964 53.454 118.251 54.3029 118.556C54.301 118.355 54.3045 118.154 54.313 117.953C47.174 115.395 40.4123 112.735 35.6869 110.688C35.3721 110.551 35.1065 110.441 34.8835 110.349C34.0042 109.985 33.7844 109.894 33.7997 109.529C33.5624 104.965 40.0919 92.7977 40.9867 93.2585C41.4912 93.5189 43.1162 94.0328 45.2905 94.6618C47.0862 89.3374 50.6025 84.9647 52.6003 83.8103C53.0904 83.5322 53.6511 83.404 54.2133 83.4416C54.9412 83.5015 55.6451 83.7304 56.2687 84.1106C57.0522 84.4877 57.7705 84.9885 58.3963 85.5922C58.8356 86.1637 59.5538 90.1101 57.0821 96.0252C56.8479 96.5828 56.5925 97.1305 56.3165 97.6674C60.4513 98.7558 63.8998 99.6345 64.3075 99.7366C79.2431 103.425 85.1266 104.229 87.3188 104.529C88.2044 104.65 88.4878 104.688 88.5216 104.801C88.5377 104.855 88.4985 104.924 88.4409 105.027C88.4225 105.06 88.4018 105.096 88.381 105.137C85.3348 110.965 83.5182 118.516 82.8385 124.862C82.8177 125.054 82.8062 125.223 82.7962 125.37C82.7425 126.161 82.7302 126.339 81.5957 126.101V126.087C79.8429 125.763 77.859 125.307 75.7144 124.75C75.6166 124.902 75.5154 125.05 75.4108 125.196C76.6373 125.501 77.7883 125.762 78.8314 125.964C79.3982 126.074 79.8867 126.17 80.3076 126.253H80.3084C82.8108 126.746 82.9391 126.771 83.085 126.415C83.2609 125.985 83.2824 125.713 83.3278 125.127C83.3769 124.493 83.4545 123.494 83.7871 121.533C84.642 116.494 86.0913 111.24 87.5354 108.28C87.6268 108.091 87.7174 107.872 87.8188 107.629C87.8818 107.476 87.9494 107.314 88.0239 107.143C88.0861 106.998 89.4087 107.209 91.0732 107.474C92.6862 107.732 94.6202 108.04 96.0389 108.126C109.228 108.928 109.322 85.6368 102.362 77.2324ZM41.8318 73.7024C41.5698 73.6617 41.4305 73.6401 41.4292 73.6392C42.2104 72.5439 86.6021 81.2571 85.7687 82.4008C85.7265 82.4592 85.6773 82.4715 85.5022 82.4415C84.3132 82.2365 80.5703 81.2356 79.1847 80.8646H79.1839L79.1747 80.8623C78.9765 80.8093 78.8283 80.7694 78.743 80.7471C66.5639 77.5396 45.0333 74.1991 41.8318 73.7024ZM90.5086 86.2666C90.3158 86.1783 90.1791 86.8358 90.1576 87.62C90.077 92.4098 90.4771 97.1965 91.3528 101.906C91.7237 104.094 92.3858 105.243 92.571 105.102C92.6746 105.022 92.6193 104.97 92.5617 104.915C92.5341 104.889 92.5057 104.862 92.4941 104.831C91.1523 101.001 90.4971 91.9827 90.6669 87.5447C90.6807 87.1906 90.7099 86.9502 90.7298 86.782C90.7736 86.4195 90.7767 86.3895 90.5086 86.2666ZM99.6942 101.855C99.6881 101.861 99.6789 101.865 99.6627 101.871C99.6474 101.877 99.6266 101.886 99.5967 101.901C99.5544 101.771 99.5829 101.618 99.6405 101.303C99.7503 100.704 99.9669 99.5208 100.011 96.8117C100.054 94.1741 99.3194 85.3173 98.2748 83.0752C98.2663 83.0575 98.2571 83.0383 98.2479 83.0199C98.1765 82.874 98.0928 82.7042 98.2487 82.6082C98.37 82.5329 98.4645 82.6604 98.5467 82.7718L98.5636 82.7949C98.5674 82.7987 98.5705 82.8033 98.5736 82.8079C98.5767 82.8118 98.5805 82.8164 98.5836 82.8202C100.05 84.6836 100.897 97.6766 99.8125 101.383C99.7457 101.612 99.7249 101.727 99.7142 101.787C99.7065 101.828 99.7042 101.845 99.6942 101.855ZM100.218 77.1463C97.0213 77.8376 92.2184 82.0053 91.0716 83.6421C90.8067 84.0207 90.8466 84.2281 91.0033 84.3072C91.0816 84.3472 91.2445 84.1682 91.372 84.0284C91.3873 84.0115 91.4019 83.9962 91.4157 83.9808C95.0864 80.0105 98.1734 78.4037 99.5352 77.694C100.154 77.3721 100.416 77.2354 100.218 77.1463ZM70.4162 81.6481C70.4162 81.6481 85.2065 85.4117 86.6098 85.9002C86.6098 85.9002 87.0115 85.888 87.0637 86.0984C87.1206 87.8136 87.0369 89.531 86.8149 91.2331C85.7465 96.0652 79.1063 97.9001 74.3296 96.6474C67.1741 94.0912 67.8761 84.6337 70.4162 81.6481Z" fill="black"/>
</g>
<g id="Group_3">
<g id="Group_4">
<path id="Vector" d="M41.9973 126.377C44.7496 126.336 47.426 127.279 49.5445 129.036C51.6631 130.794 53.0844 133.25 53.5525 135.962C53.8481 137.577 53.8 139.237 53.4113 140.833C53.0226 142.429 52.302 143.925 51.2964 145.224C50.2909 146.523 49.023 147.595 47.5753 148.371C46.1277 149.146 44.5327 149.608 42.8945 149.726C41.2564 149.845 39.6116 149.616 38.0676 149.057C36.5235 148.497 35.1149 147.618 33.9332 146.476C32.7516 145.336 31.8237 143.959 31.2099 142.436C30.596 140.912 30.3102 139.276 30.3708 137.635C30.5551 131.057 36.3588 126.112 41.9973 126.377ZM41.9067 149.362C43.4023 149.384 44.8874 149.109 46.2753 148.551C47.6632 147.993 48.9261 147.165 49.9905 146.113C51.0547 145.062 51.8991 143.81 52.4743 142.429C53.0495 141.048 53.3439 139.567 53.3405 138.071C53.3159 127.975 41.0603 122.987 34.0292 130.055C26.6747 137.452 32.4707 149.246 41.9067 149.362Z" fill="black"/>
<path id="Vector_2" d="M51.374 138.15C51.3681 140.073 50.777 141.948 49.6793 143.525C48.5815 145.104 47.0292 146.31 45.229 146.984C43.4287 147.659 41.4659 147.768 39.6016 147.299C37.7374 146.831 36.0602 145.804 34.7932 144.359C33.5262 142.913 32.7295 141.116 32.5092 139.206C32.2888 137.297 32.6552 135.365 33.5596 133.669C34.464 131.973 35.8636 130.592 37.572 129.711C39.2804 128.83 41.2167 128.489 43.1232 128.736C47.8907 129.367 51.0384 133.546 51.2649 136.987C51.2941 137.371 51.3371 137.761 51.374 138.15ZM32.7263 138.025C32.7082 140.446 33.6526 142.775 35.3517 144.5C37.0509 146.225 39.3656 147.204 41.7867 147.222C44.2078 147.241 46.5369 146.296 48.2617 144.597C49.9865 142.898 50.9657 140.583 50.9838 138.162C50.9496 135.779 50.0005 133.5 48.333 131.798C46.6655 130.095 44.4072 129.099 42.0256 129.015C39.5996 128.984 37.2599 129.914 35.5175 131.602C33.775 133.291 32.7716 135.599 32.7263 138.025Z" fill="black"/>
<path id="Vector_3" d="M40.4897 130.084C42.6443 132.122 44.625 134.335 46.4109 136.703C46.0054 136.762 45.3448 136.27 41.8331 135.858C41.4644 135.815 41.6211 136.159 40.8899 132.414C40.3968 129.884 40.4621 130.316 40.4897 130.084Z" fill="black"/>
<path id="Vector_4" d="M41.2218 135.907C41.175 135.949 37.3599 138.041 37.1402 138.087C37.098 137.232 39.5067 130.974 40.0966 130.363C40.2671 130.615 41.1919 135.726 41.2218 135.907Z" fill="black"/>
<path id="Vector_5" d="M46.7847 138.13C46.015 140.733 44.9636 143.244 43.6494 145.619C43.5004 145.89 43.3422 145.166 43.2807 144.858C42.6225 141.484 42.654 141.616 42.7753 141.504C46.9169 137.663 46.6711 137.853 46.7847 138.13Z" fill="black"/>
<path id="Vector_6" d="M42.542 140.75C42.4651 140.617 42.5758 141.101 41.8645 137.384C41.6218 136.118 41.5411 136.093 41.7992 136.133C43.3693 136.358 44.9219 136.692 46.4462 137.131C46.6873 137.202 46.8502 137.116 43.413 140.05C42.5704 140.776 42.7716 140.607 42.542 140.75Z" fill="black"/>
<path id="Vector_7" d="M42.1365 140.61C42.0735 140.628 41.9959 140.678 41.9414 140.662C41.3438 140.477 37.0256 138.972 37.0563 138.656C37.0794 138.43 41.0934 136.374 41.2078 136.334C41.3223 136.294 41.3246 136.376 41.6887 138.228C41.8891 139.012 42.0386 139.808 42.1365 140.61Z" fill="black"/>
<path id="Vector_8" d="M42.9738 145.501C42.5314 145.266 37.1701 140.149 37.1363 139.752C37.1025 139.356 37.0241 139.556 42.1204 141.548C42.4207 141.666 42.3293 141.563 42.9046 144.736C42.9667 144.986 42.99 145.244 42.9738 145.501Z" fill="black"/>
</g>
<path id="Vector_9" d="M42.6386 109.376C42.6416 109.36 42.639 109.344 42.6311 109.33C42.6232 109.315 42.6107 109.305 42.5957 109.298C42.5806 109.293 42.564 109.292 42.5487 109.298C42.5334 109.303 42.5204 109.313 42.5119 109.327C41.6186 110.904 41.2722 115.087 41.213 117.039C41.1541 119.076 41.3869 121.112 41.9043 123.083C42.3068 124.263 42.7039 124.312 42.5411 123.715C41.2814 119.083 41.5694 113.988 42.6386 109.376Z" fill="black"/>
<path id="Vector_10" d="M37.5057 113.243C37.7875 110.982 38.2997 108.756 39.0342 106.6C39.3768 105.62 39.5826 105.371 39.4298 105.294C39.4088 105.283 39.3846 105.28 39.3615 105.285C39.3385 105.291 39.3183 105.304 39.3046 105.324C38.5508 106.515 38.0119 107.829 37.7123 109.206C36.8057 112.91 36.5932 116.751 37.0856 120.532C37.5388 124.334 38.3391 124.543 38.3483 124.1C37.4494 120.556 37.1645 116.884 37.5057 113.243Z" fill="black"/>
<g id="Group_5">
<path id="Vector_11" d="M109.725 136.403C109.714 139.071 108.787 141.654 107.098 143.72C105.41 145.785 103.063 147.208 100.45 147.748C97.8373 148.289 95.1182 147.916 92.7479 146.69C90.3784 145.465 88.5019 143.463 87.4327 141.018C83.4387 131.37 92.7072 121.892 102.134 125.449C104.135 126.195 105.891 127.479 107.21 129.16C108.528 130.84 109.358 132.851 109.607 134.973C109.642 135.448 109.684 135.934 109.725 136.403ZM86.8551 136.421C86.8536 138.643 87.5103 140.816 88.7439 142.664C89.9766 144.513 91.7302 145.954 93.7825 146.807C95.8349 147.659 98.0938 147.883 100.274 147.451C102.453 147.02 104.456 145.951 106.029 144.381C107.601 142.811 108.673 140.81 109.108 138.631C109.544 136.452 109.323 134.193 108.475 132.139C107.627 130.085 106.188 128.33 104.341 127.093C102.494 125.857 100.323 125.197 98.1007 125.194C96.6222 125.182 95.1559 125.464 93.7871 126.024C92.4184 126.583 91.1749 127.409 90.1287 128.454C89.0818 129.499 88.2538 130.741 87.6916 132.109C87.1301 133.477 86.8451 134.942 86.8551 136.421Z" fill="black"/>
<path id="Vector_12" d="M90.891 130.29C91.8818 129.16 93.1292 128.284 94.5286 127.735C95.9281 127.187 97.4389 126.982 98.9336 127.138C100.428 127.293 101.865 127.805 103.12 128.63C104.377 129.455 105.418 130.569 106.154 131.879C106.891 133.189 107.304 134.656 107.357 136.159C107.41 137.66 107.101 139.154 106.458 140.512C105.815 141.87 104.856 143.056 103.66 143.966C102.465 144.877 101.068 145.489 99.588 145.749C90.8725 147.303 85.181 136.901 90.891 130.29ZM97.9128 145.517C106.718 145.554 110.775 133.579 102.628 128.665C100.752 127.57 98.5473 127.178 96.4089 127.559C94.2698 127.941 92.3365 129.069 90.9532 130.745C85.8822 137.111 90.8111 145.488 97.9128 145.517Z" fill="black"/>
<path id="Vector_13" d="M101.729 133.404C104.089 133.261 105.378 136.825 103.564 138.537C103.186 138.965 102.746 139.331 102.258 139.626C102.146 139.681 102.194 139.717 102.234 139.779C103.479 141.709 103.463 141.271 101.831 142.281C101.81 142.301 101.785 142.316 101.757 142.325C101.73 142.333 101.701 142.336 101.672 142.333C101.644 142.33 101.616 142.32 101.591 142.304C101.567 142.289 101.546 142.269 101.531 142.244C100.5 140.976 100.565 140.697 100.415 140.82C100.197 140.998 100.266 140.995 101.092 142.416C101.201 142.604 101.212 142.656 101.05 142.79C100.687 143.105 100.271 143.352 99.821 143.52C99.6474 143.581 99.6467 143.597 99.0437 142.746C98.4216 141.868 98.8133 141.906 97.8778 142.467C96.4184 143.343 96.4038 143.381 96.1626 143.028C95.2209 141.646 95.2586 141.575 95.5604 141.364C95.7371 141.241 96.6557 140.647 96.7371 140.615C97.0528 140.491 96.7264 140.826 95.0289 137.992C93.389 135.255 93.5757 135.534 93.3084 135.682C91.9566 136.425 92.1079 136.403 91.849 136.106C91.5356 135.706 91.2714 135.269 91.061 134.806C91.0395 134.777 91.0241 134.744 91.0164 134.709C91.0087 134.674 91.008 134.637 91.0156 134.602C91.0226 134.566 91.0372 134.533 91.0587 134.504C91.0794 134.474 91.1063 134.45 91.1378 134.432C91.6724 133.986 92.2507 133.594 92.8637 133.263C93.038 133.169 93.0096 133.271 92.1278 131.858C91.9304 131.542 92.2046 131.47 93.4605 130.629C93.6202 130.522 93.6464 130.665 94.3538 131.715C94.608 132.092 94.6856 132.241 94.863 132.099C95.0404 131.956 94.8231 131.897 94.2892 130.964C93.9367 130.35 93.7631 130.264 95.2002 129.496C95.4951 129.343 95.6288 129.479 96.3408 130.508C96.867 131.267 96.6926 130.334 98.6059 130.088C99.1996 130.083 99.7765 130.284 100.237 130.658C100.699 131.032 101.015 131.555 101.132 132.137C101.439 133.396 100.507 133.404 101.729 133.404ZM100.27 135.567C99.3141 135.815 98.4269 136.275 97.675 136.914C97.529 137.015 97.4699 136.88 98.8709 139.021C98.8932 139.043 98.9216 139.058 98.9523 139.066C98.9838 139.073 99.0161 139.072 99.046 139.062C100.392 138.259 101.716 137.52 101.409 136.336C101.311 136.114 101.152 135.924 100.951 135.788C100.75 135.652 100.515 135.576 100.272 135.568L100.27 135.567ZM98.6297 133.501C98.619 133.358 98.5767 133.22 98.5053 133.096C98.4339 132.972 98.3355 132.866 98.218 132.785C98.0997 132.705 97.9646 132.652 97.8232 132.63C97.6819 132.609 97.5375 132.619 97.4008 132.662C96.7548 132.914 96.1434 133.248 95.5819 133.655C95.522 133.692 95.5051 133.714 95.5466 133.78C96.562 135.366 96.5075 135.44 96.7387 135.285C97.602 134.708 98.5168 134.221 98.632 133.501H98.6297Z" fill="black"/>
</g>
<path id="Vector_14" d="M90.8223 124.4C89.5549 121.848 88.0034 119.447 86.1961 117.244C85.2997 116.145 83.424 113.951 82.202 113.227C81.9639 113.042 81.6728 113.357 81.8034 113.47C83.328 114.71 84.7029 116.125 85.8988 117.684C90.5496 123.368 90.4198 124.796 90.8 124.613C90.8484 124.59 90.8906 124.539 90.8223 124.4Z" fill="black"/>
<path id="Vector_15" d="M95.9153 122.098C95.0005 120.231 93.8599 118.484 92.5188 116.895C91.18 115.172 89.7214 113.546 88.153 112.029C85.8487 109.837 84.4462 108.604 82.221 107.749C82.1381 107.717 81.7341 107.668 81.7187 107.826C81.6818 108.201 84.0337 108.527 88.5985 113.231C94.2946 119.101 95.2878 121.655 95.7594 122.36C95.8769 122.535 96.0152 122.471 96.0175 122.367C95.9959 122.273 95.9614 122.183 95.9153 122.098Z" fill="black"/>
<g id="Group_6">
<path id="Vector_16" d="M77.4231 122.045C79.9017 113.425 73.6925 106.384 66.0016 106.38C63.1954 106.372 60.4743 107.343 58.3061 109.125C56.1379 110.907 54.6583 113.388 54.1215 116.143C52.2297 127.929 65.1267 134.416 73.2516 128.027C76.5505 125.433 77.0828 123.214 77.4231 122.045ZM67.4686 129.956C65.3038 130.249 63.1004 129.924 61.1116 129.02C59.1228 128.116 57.4294 126.669 56.226 124.847C55.0227 123.023 54.3581 120.898 54.3088 118.713C54.2596 116.53 54.8274 114.376 55.9473 112.5C57.0388 110.642 58.6316 109.128 60.5435 108.131C62.0488 107.34 63.7094 106.887 65.4083 106.806C67.1073 106.726 68.8033 107.019 70.3767 107.665C71.9501 108.311 73.3627 109.294 74.5149 110.546C75.6671 111.797 76.5309 113.285 77.0452 114.906C77.5598 116.527 77.7119 118.242 77.4922 119.929C77.2726 121.615 76.685 123.233 75.7719 124.668C74.8587 126.102 73.6419 127.32 72.2074 128.234C70.7727 129.147 69.1551 129.735 67.4686 129.956Z" fill="black"/>
<path id="Vector_17" d="M65.7885 128.241C63.2176 128.21 60.7634 127.163 58.961 125.329C57.1586 123.496 56.1542 121.024 56.1666 118.452C56.1791 115.882 57.2075 113.42 59.0276 111.604C60.8477 109.788 63.3119 108.765 65.883 108.758C68.4362 108.748 70.8893 109.75 72.7038 111.547C74.5183 113.343 75.5458 115.786 75.5609 118.339C75.583 119.635 75.3463 120.921 74.8646 122.124C74.3829 123.327 73.666 124.421 72.7559 125.344C71.8457 126.266 70.7606 126.997 69.5643 127.495C68.3679 127.992 67.0842 128.246 65.7885 128.241ZM69.589 127.079C78.1647 123.42 76.7322 109.446 65.737 109.123C60.2774 108.963 54.9891 114.566 56.7504 121.043C57.1148 122.338 57.7534 123.54 58.623 124.566C59.4927 125.593 60.5729 126.421 61.7906 126.994C63.0082 127.566 64.3347 127.87 65.6801 127.885C67.0256 127.899 68.3584 127.624 69.5882 127.079H69.589Z" fill="black"/>
<path id="Vector_18" d="M72.7753 120.897C72.846 121.314 72.6263 121.501 72.2807 121.659C70.341 122.611 68.3533 123.46 66.3257 124.206C63.0428 125.315 64.1351 125.786 62.7156 121.505C61.469 122.296 61.1794 122.783 61.0028 122.252C60.2163 119.902 60.3269 119.709 60.8023 119.328C61.9737 118.389 62.0727 118.495 61.9821 118.062C61.8431 117.399 61.3845 114.529 61.3323 113.372C61.3169 113.02 61.3323 112.82 61.6203 112.669C62.5266 112.209 63.472 111.831 64.4454 111.538C64.9346 111.431 64.7956 111.505 65.4754 115.202C65.5038 115.356 65.5476 115.432 65.6828 115.33C67.6944 113.785 67.4125 113.717 67.921 115.69C68.1637 116.63 68.1821 117.005 67.8511 117.332C66.5054 118.658 66.0645 118.598 66.2097 119.105C66.8702 121.424 65.2995 120.496 71.9796 118.26C72.3674 118.132 72.306 118.132 72.7753 120.897Z" fill="black"/>
</g>
<g id="Group_7">
<path id="Vector_19" d="M52.6343 89.9973C52.2833 89.8514 52.2917 89.8376 52.4146 89.5073C52.6212 88.9527 52.8901 88.4427 52.2933 88.3928C51.8386 88.3544 51.8877 88.5541 51.3716 89.6494C51.3501 89.6955 51.3362 89.8253 51.2325 89.7323C51.1603 89.667 51.2717 89.4704 51.559 88.7545C51.6719 88.4734 51.6696 88.4727 51.3923 88.4719C50.2901 88.4719 50.946 89.9912 49.8776 89.8183C49.4122 89.7415 49.3945 90.0534 48.9167 91.2224C48.8453 91.3975 49.0366 91.4459 49.2685 91.4751C49.3791 91.4897 49.3699 91.5389 49.3346 91.6195C49.2993 91.7002 49.2578 91.8407 49.2086 91.9421C47.7393 94.794 47.8307 95.8709 47.4674 95.7902C46.8859 95.662 46.9727 95.8432 46.4612 97.0192C46.3843 97.1951 46.538 97.2619 46.7231 97.3387C47.3122 97.5868 47.2216 97.4263 47.0126 98.02C46.7822 98.6783 46.5518 98.9893 47.1401 99.1122C47.4374 99.1737 47.3614 99.1399 47.9021 97.8971C47.9205 97.8549 47.9789 97.8341 48.0235 97.8042C48.045 97.851 48.091 97.9063 48.0795 97.9409C47.7961 98.8434 47.7055 98.9225 47.6532 99.1099C47.601 99.2973 48.1141 99.5708 48.4275 99.1737C49.108 98.03 48.7439 97.9847 49.3492 97.9847C50.6926 98.0868 51.8032 95.9585 52.0528 94.5897C52.2065 93.7533 51.8547 93.6473 52.1297 93.3692C52.7341 92.7478 53.8832 90.5173 52.6343 89.9973ZM49.2462 96.1113C49.1058 96.0837 48.9677 96.0445 48.833 95.9961C49.4759 93.8785 49.5512 94.0674 49.8553 94.1066C51.1058 94.2687 50.2555 96.2588 49.2462 96.1113ZM50.6288 91.4313C50.7294 91.2009 50.7901 91.1779 51.0321 91.214C51.3554 91.2624 51.4384 91.3768 51.4322 91.7109C51.4292 91.9782 51.3203 92.2332 51.1296 92.4206C50.9389 92.6073 50.6817 92.7117 50.4145 92.7094C50.0059 92.7041 50.0289 92.7855 50.6296 91.4313H50.6288Z" fill="black"/>
<path id="Vector_20" d="M58.3958 85.5924C57.77 84.9887 57.0517 84.4879 56.2682 84.1107C55.6446 83.7305 54.9407 83.5016 54.2128 83.4417C53.6506 83.4041 53.0898 83.5324 52.5998 83.8104C50.3723 85.0977 46.2569 90.386 44.7438 96.5331C44.1239 99.0524 43.63 102.724 45.9258 103.921C46.8544 104.404 48.4113 105.219 49.373 105.004C50.9529 104.651 52.4285 103.286 53.5707 101.844C55.0172 100.085 56.1999 98.1245 57.0816 96.0253C59.5533 90.1103 58.8352 86.1638 58.3958 85.5924ZM44.6131 99.1492C45.236 93.7825 48.403 88.2868 51.0859 85.4119C51.7276 84.5693 52.6433 83.9763 53.6751 83.7367C53.9304 83.6698 54.1963 83.6553 54.4574 83.6921C54.7187 83.729 54.97 83.8173 55.1968 83.9517C55.4237 84.0862 55.6217 84.2644 55.7793 84.4756C55.937 84.6876 56.0512 84.928 56.1153 85.1838C56.3344 85.8044 56.4529 86.4565 56.4663 87.1147C56.5085 89.3337 55.3142 94.3709 52.4938 98.8189C48.1011 105.753 43.9334 104.918 44.6048 99.1492H44.6131ZM48.9513 104.686C48.7977 104.717 48.8284 104.711 47.2269 104.159C47.1447 104.131 47.1762 104.049 47.2431 104.034C50.5059 103.343 55.1476 96.9309 56.6353 89.1333C57.302 85.6362 55.7904 84.1637 56.3104 84.4825C57.0785 84.9549 58.0771 85.4203 58.296 86.2383C58.4778 87.3674 58.5119 88.515 58.3973 89.6525C57.855 94.894 53.3248 103.805 48.9513 104.686Z" fill="black"/>
<path id="Vector_21" d="M54.6876 87.1916C54.1277 82.696 48.8939 87.634 46.4368 95.1444C45.7962 97.1038 44.5458 102.022 46.6127 102.176C49.9117 102.421 55.309 92.2026 54.6876 87.1916ZM49.7972 99.7176C49.2104 100.492 47.9538 101.659 46.9968 101.852C43.5404 102.553 48.0506 88.2769 52.7636 85.8759C55.5594 84.4518 54.7645 93.1697 49.7941 99.7176H49.7972Z" fill="black"/>
</g>
<g id="Group_8">
<path id="Vector_22" d="M86.7172 91.5563C86.6112 91.8497 86.4775 92.1331 86.3186 92.4012C85.5005 93.8352 84.3215 95.0303 82.899 95.8683C81.4765 96.7055 79.8589 97.1556 78.2083 97.1748C71.7126 97.35 67.0188 90.5232 69.4813 84.1611C69.8462 83.2578 70.3777 82.4313 71.0482 81.7247C70.946 81.6878 70.4951 81.6563 70.2801 81.6018C69.6079 82.608 69.072 83.6995 68.6863 84.8462C68.16 86.7764 68.1534 88.8119 68.6671 90.7452C68.9539 91.8358 69.4697 92.8536 70.1802 93.7292C72.423 96.4551 74.1605 97.3492 77.1545 97.6464C79.1208 97.8116 81.0925 97.393 82.823 96.4436C84.5527 95.4935 85.9637 94.0549 86.88 92.3067C86.8739 92.2975 86.87 92.2875 86.8677 92.2767C86.8293 92.0363 86.7671 91.7982 86.7172 91.5563Z" fill="black"/>
<path id="Vector_23" d="M81.4376 95.0934C83.1313 94.2339 84.4831 92.8253 85.2727 91.0978C86.0615 89.3704 86.242 87.4271 85.7842 85.5837C85.6283 85.5445 85.4747 85.4977 85.3234 85.4431C86.7828 90.9304 82.6128 96.0059 77.5657 95.5481C71.179 94.969 67.9046 86.9071 73.0017 82.3093C72.8942 82.2725 72.7859 82.2394 72.6783 82.1987C72.633 82.2602 72.2943 82.5582 72.1814 82.6749C66.5797 88.4948 73.3181 98.7833 81.4376 95.0934Z" fill="black"/>
<path id="Vector_24" d="M83.5183 89.5353C81.7609 88.3064 82.5736 89.4524 83.1074 87.2311C83.2226 86.827 83.251 86.4038 83.1903 85.9883C83.1304 85.5728 82.9822 85.1749 82.7564 84.8208C82.6796 84.7962 80.1879 84.1364 79.8699 84.0834C79.7439 84.1533 79.5189 84.3254 79.3714 84.403C79.3138 84.3008 79.3238 84.0834 79.2662 83.9098C79.1126 83.8638 76.6608 83.1417 75.9127 82.9651C75.0739 83.8607 75.1285 84.1779 74.8489 84.0043C73.6729 83.2723 73.6591 83.2815 73.3235 83.7555C72.9118 84.3369 72.6698 84.5758 73.2659 84.9698C73.9203 85.403 74.0624 85.4491 74.077 85.4775C74.1968 85.7149 74.0393 85.8009 73.9011 85.7164C72.4716 84.8423 72.646 84.8653 72.411 85.2663C71.8802 86.1719 71.7197 86.2648 72.0123 86.4607C73.0208 87.1404 73.1322 87.0751 72.9617 87.3378C71.924 88.9408 71.5914 88.8364 73.262 89.7489C73.4679 89.861 73.5654 89.8257 73.7029 89.6344C74.7721 88.1566 73.5093 88.5629 78.4651 91.2935C78.7354 91.4425 78.6187 91.3457 78.0319 92.3081C77.8168 92.6592 77.7853 92.7989 78.9428 93.4649C79.2938 93.6669 79.3414 93.7084 80.2555 92.2359C80.5765 91.7198 80.4306 91.8381 81.638 92.5555C81.9099 92.7175 82.0759 92.5555 82.6197 91.6338C82.794 91.338 82.688 91.3603 81.4959 90.5584C81.4775 90.5461 81.4614 90.5308 81.4499 90.5116C81.4383 90.4931 81.4307 90.4724 81.4276 90.4501C81.4245 90.4286 81.426 90.4063 81.433 90.3848C81.4391 90.3641 81.4499 90.3449 81.4644 90.328C81.5328 90.2205 81.595 90.2811 81.6749 90.328C82.8647 91.0262 82.9269 91.1084 83.0705 90.9018C83.5982 90.1344 83.9738 89.8533 83.5183 89.5353ZM76.7138 87.3778C76.637 87.4861 76.5763 87.536 76.4365 87.4392C75.365 86.7011 75.1362 86.7088 75.2637 86.5229C75.6761 85.9199 76.1777 84.9506 76.7945 84.9729C78.1225 85.0197 77.412 86.3508 76.7138 87.3778ZM78.0657 88.4938C77.9965 88.45 77.9251 88.4047 77.9988 88.2887C78.3214 87.6589 78.7354 87.0805 79.2278 86.572C79.366 86.4284 79.5458 86.3309 79.7416 86.2925C79.9375 86.2541 80.1403 86.2763 80.3231 86.3577C80.5059 86.4384 80.6587 86.5736 80.7624 86.7441C80.8653 86.9146 80.9137 87.1135 80.9007 87.3125C80.6918 88.1051 80.3115 88.8425 79.7854 89.4716C79.6218 89.4716 80.0197 89.7412 78.0657 88.4938Z" fill="black"/>
</g>
</g>
</g>
</g>
</svg>
