<svg width="154" height="154" viewBox="0 0 154 154" fill="none" xmlns="http://www.w3.org/2000/svg">
<g id="Astronaut-Grumpy-Checking-Their-Smartphone--Streamline-Milano">
<g id="Astronaut-Grumpy-Checking-Their-Smartphone--Streamline-Milano.svg">
<g id="Group">
<path id="Vector" d="M121.826 96.7974C122.045 97.7613 122.457 98.6715 123.036 99.4742C123.614 100.276 124.347 100.954 125.193 101.467C126.038 101.98 126.978 102.318 127.957 102.46C128.935 102.603 129.932 102.548 130.889 102.298C137.693 100.609 138.45 91.8678 132.809 88.6095C131.547 87.8868 130.1 87.5488 128.648 87.6364C127.196 87.7247 125.801 88.2347 124.635 89.1042C123.468 89.9737 122.581 91.165 122.082 92.5314C121.583 93.8986 121.494 95.381 121.826 96.7974ZM124.735 89.5143C125.515 88.906 126.415 88.469 127.376 88.2324C128.337 87.9951 129.337 87.9628 130.311 88.1379C131.285 88.313 132.211 88.6917 133.029 89.2493C133.847 89.8062 134.538 90.5298 135.058 91.3716C139.526 98.6362 129.773 105.986 123.938 99.9135C123.264 99.2 122.745 98.3528 122.418 97.4264C122.09 96.5009 121.959 95.5162 122.035 94.5369C122.11 93.5576 122.39 92.6044 122.855 91.7395C123.32 90.8746 123.962 90.1165 124.738 89.5143H124.735Z" fill="black"/>
<path id="Vector_2" d="M129.124 100.99C129.983 100.967 130.827 100.757 131.596 100.375C132.365 99.9925 133.043 99.4472 133.58 98.7766C134.117 98.1061 134.502 97.3265 134.707 96.4923C134.913 95.6582 134.935 94.7894 134.769 93.9461C134.605 93.1027 134.259 92.3047 133.755 91.6088C133.251 90.9129 132.601 90.3353 131.851 89.9159C131.102 89.4965 130.269 89.2461 129.413 89.1809C128.556 89.1156 127.695 89.2385 126.89 89.5396C125.8 89.9927 124.85 90.7301 124.14 91.6748C121.22 96.4424 124.891 101.158 129.124 100.99ZM127.992 99.4763C128.305 98.3342 128.54 97.3595 128.606 97.3011C128.69 97.2466 128.784 97.2112 128.884 97.1959C129.268 97.0976 131.258 96.457 131.617 96.3625C131.765 96.3233 131.864 96.3141 131.607 96.5776C131.609 96.7127 127.887 99.8727 127.992 99.4763ZM128.519 96.0491C128.42 96.3663 128.334 96.2987 128.288 96.2603C127.713 95.6973 127.269 95.2526 126.787 94.6988C126.557 94.4331 126.416 94.3401 126.551 94.3086C127.319 94.1243 128.099 93.9922 128.885 93.9115C128.917 93.9069 129.102 93.877 129.039 94.0736C129.039 94.1504 128.662 95.5898 128.519 96.0491ZM129.622 94.0582C130.245 94.463 130.822 94.9339 131.343 95.4623C131.665 95.7642 131.546 95.7695 130.723 96.0122C128.902 96.5576 128.859 96.5008 128.926 96.2258C129.432 94.1443 129.39 93.9277 129.622 94.0582ZM130.361 90.5442C130.576 91.0888 131.566 94.7157 131.566 94.7434C131.873 95.9869 131.873 95.0836 129.722 93.6534C129.621 93.5859 129.645 93.5352 129.704 93.2133C129.741 93.0152 130.235 90.7616 130.278 90.608C130.312 90.4881 130.344 90.5066 130.361 90.5442ZM129.967 90.4628C130.149 90.3253 129.828 91.0005 129.457 92.5098C129.204 93.5367 129.192 93.4607 129.027 93.4699C128.131 93.592 127.241 93.7587 126.36 93.9699C127.483 92.7218 128.688 91.5496 129.967 90.4628ZM126.167 94.897C126.256 94.8271 127.19 96.1259 128.135 97.1006C128.023 97.8603 127.87 98.6138 127.675 99.3565C127.571 99.7682 125.946 95.0007 126.167 94.897Z" fill="black"/>
<path id="Vector_3" d="M82.0318 92.8374C85.2163 94.3644 101.443 99.2625 104.053 98.5981C105.195 98.307 105.69 97.1825 106.337 95.9098C112.021 84.7141 112.904 83.2847 110.625 79.9719C109.867 78.872 109.061 78.6616 107.048 78.0202C103.177 76.7843 89.7856 73.2642 85.7109 73.1459C82.869 72.9055 81.5026 76.4372 79.7436 79.7169C79.1176 80.8844 76.7243 86.3847 77.3549 88.1482C78.6161 91.6776 80.0178 91.8712 82.0318 92.8374ZM78.1345 85.9192C78.4594 84.3101 80.1023 80.0864 82.9458 75.5224C84.3821 73.2181 85.7662 74.0983 85.7793 73.8326C90.0168 74.3126 100.177 76.7782 104.507 78.0471C111.403 80.0672 111.619 79.3037 106.499 89.5892C104.123 94.3613 103.678 96.2239 101.524 95.79C92.2689 93.9258 81.0932 90.3557 78.8096 88.8925C77.914 88.4079 77.9317 86.9201 78.1337 85.9192H78.1345Z" fill="black"/>
<path id="Vector_4" d="M125.223 80.3027C122.645 82.991 115.454 98.6393 115.315 101.697C115.268 102.746 115.95 101.912 122.996 105.298C131.757 109.507 133.615 111.944 134.435 110.632C136.648 107.088 143.835 89.188 142.528 87.4605C141.547 86.164 136.96 83.7806 134.408 82.3796C133.114 81.6699 129.204 79.4609 127.03 79.4962C126.684 79.4555 126.333 79.5085 126.015 79.6506C125.697 79.7927 125.423 80.0178 125.223 80.3027ZM127.604 80.5001C132.28 81.7291 140.29 86.5619 141.574 87.6495C142.099 88.0942 142.189 88.1772 139.989 95.1768C138.392 99.7654 136.532 104.258 134.415 108.631C133.716 110.095 133.772 109.967 133.548 109.853C128.747 107.428 128.507 106.474 119.558 102.576C115.794 100.938 115.89 102.742 116.799 99.8107C118.801 94.0477 121.336 88.4829 124.369 83.1892C124.566 82.8443 124.811 82.5601 125.275 81.7605C125.844 80.7797 126.513 80.2128 127.605 80.5001H127.604Z" fill="black"/>
<path id="Vector_5" d="M86.7171 78.5823C85.7155 78.6568 84.7731 79.0869 84.0603 79.7943C83.3467 80.5017 82.9097 81.4411 82.8267 82.4419C82.8067 87.3777 88.1434 87.5244 89.6397 83.5718C90.5069 81.2752 89.2794 78.7044 86.7171 78.5823ZM88.3393 84.4835C86.6303 86.4191 83.7215 85.8707 83.5618 82.783C83.6232 79.7375 86.8438 78.1053 88.5628 80.0578C89.0475 80.706 89.2902 81.5033 89.2495 82.3114C89.208 83.1194 88.8854 83.8882 88.3378 84.4835H88.3393Z" fill="black"/>
<path id="Vector_6" d="M94.4689 81.6904C99.7456 83.3087 102.246 84.2251 102.764 84.1559C102.951 84.1306 103.078 83.9124 102.918 83.7872C101.584 82.7565 95.856 81.2226 95.0833 81.2364C94.5672 81.2456 94.4289 81.2026 94.336 81.4738C94.2968 81.5775 94.359 81.6566 94.4689 81.6904Z" fill="black"/>
<path id="Vector_7" d="M100.412 85.1637C98.6374 84.4847 96.8217 83.9186 94.9759 83.4678C94.6065 83.3648 94.2117 83.4125 93.8776 83.5999C93.4029 83.9071 94.0911 84.1375 94.6457 84.2435C98.725 85.0439 100.374 86.133 100.625 85.5101C100.674 85.3803 100.624 85.2659 100.412 85.1637Z" fill="black"/>
<path id="Vector_8" d="M98.2875 87.1409C98.0571 87.0165 94.199 85.7492 93.3034 85.5856C93.2343 85.5733 93.1636 85.5863 93.1029 85.6224C93.043 85.6585 92.9977 85.7146 92.9754 85.7814C92.9539 85.8482 92.9562 85.9204 92.9831 85.985C93.01 86.0495 93.0592 86.1025 93.1221 86.134C93.3134 86.2553 97.8428 87.6886 98.0663 87.7293C98.4373 87.7969 98.6816 87.3483 98.2875 87.1409Z" fill="black"/>
<path id="Vector_9" d="M127.109 84.7976C127.408 84.6778 126.832 85.7523 127.284 85.8944C127.381 85.9252 127.493 85.6924 127.531 85.598C127.941 84.5825 127.778 84.6033 128.198 84.7646C129.016 85.078 129.091 85.0641 129.212 85.0396C129.332 85.015 129.353 84.9397 129.273 84.8729C129.02 84.6601 128.76 84.4558 128.488 84.2676C128.186 84.0587 129.619 83.7184 129.518 83.4788C129.417 83.2392 129.41 83.3782 128.42 83.6455C128.059 83.743 128.273 83.5287 128.361 82.7576C128.37 82.6938 128.352 82.6293 128.313 82.5778C128.274 82.5264 128.216 82.4933 128.152 82.4841C128.089 82.4757 128.024 82.4918 127.973 82.531C127.921 82.5694 127.887 82.627 127.877 82.6907C127.513 83.786 127.57 83.6892 127.259 83.5141C126.537 83.1017 126.377 83.3121 126.503 83.7392C126.558 83.9274 127.194 84.0902 126.957 84.2392C126.564 84.4865 126.238 84.5887 126.399 84.8813C126.505 85.0726 126.693 84.9627 127.109 84.7976Z" fill="black"/>
<path id="Vector_10" d="M133.51 105.208C132.121 105.089 132.267 105.46 132.825 104.311C133.055 103.836 132.722 103.557 132.388 104.039C132.113 104.436 132.074 104.705 131.92 104.517C131.741 104.301 131.436 103.851 131.158 104.017C130.88 104.184 131.218 104.503 131.473 104.987C131.684 105.389 130.308 104.926 130.256 105.381C130.246 105.466 130.381 105.626 130.513 105.671C131.277 105.93 131.413 105.55 131.261 106.026C131.208 106.192 131.073 106.381 131.238 106.551C131.315 106.628 131.392 106.561 131.448 106.497C132.21 105.599 131.768 105.745 132.432 106.479C132.825 106.914 132.997 106.709 132.953 106.568C132.594 105.401 132.231 105.895 133.547 105.401C133.681 105.35 133.585 105.229 133.51 105.208Z" fill="black"/>
<path id="Vector_11" d="M137.091 91.0955C137.617 91.1662 137.796 90.9987 137.746 91.2253C137.586 91.9488 137.726 91.7422 138.265 91.2691C138.431 91.5118 138.802 92.147 138.843 91.7522C138.95 90.6554 138.118 91.2092 139.65 90.65C139.708 90.6293 139.793 90.65 139.83 90.4703C139.845 90.4004 139.528 90.3935 139.163 90.3689C139.163 90.3796 138.769 90.4457 138.943 90.0686C139.02 89.9027 139.058 89.749 138.892 89.6715C138.64 89.5555 138.58 89.7767 138.42 90.0186C138.232 90.3021 138.262 89.9964 137.789 89.6284C137.636 89.5071 137.422 89.673 137.547 89.9918C137.716 90.4165 137.898 90.4211 137.536 90.5256C137.361 90.5502 137.191 90.607 137.036 90.6922C136.879 90.8428 136.934 91.0748 137.091 91.0955Z" fill="black"/>
<path id="Vector_12" d="M120.839 98.5034C120.74 98.3544 120.496 98.5618 120.355 98.6916C119.895 99.1156 119.876 99.2692 119.764 99.0595C119.694 98.9297 119.61 98.657 119.482 98.7C119.431 98.7169 119.388 98.7507 119.359 98.7968C119.331 98.8421 119.32 98.8966 119.329 98.9496C119.3 99.1885 119.309 99.1463 118.97 99.1033C118.497 99.1033 118.415 99.5019 118.803 99.6816C119.192 99.8614 119.281 99.7715 119.123 100.015C118.724 100.629 118.822 100.465 118.769 100.629C118.911 100.643 118.911 100.763 119.5 100.268C119.697 100.102 119.63 100.303 119.924 100.848C119.957 100.91 120.041 100.943 120.102 100.99C120.269 100.481 119.917 100.053 120.222 100.094C120.355 100.113 120.707 100.222 120.722 100.109C120.745 99.9428 120.633 99.8491 120.346 99.6809C119.948 99.4527 121.147 98.9635 120.839 98.5034Z" fill="black"/>
<path id="Vector_13" d="M133 85.9238C133.392 86.1036 133.422 85.9922 133.258 86.2395C132.992 86.5729 132.828 86.7726 132.955 86.9062C133.082 87.0399 133.099 87.0399 133.712 86.5322C133.914 86.3647 133.742 86.5083 134.046 87.0744C134.079 87.1374 134.174 87.4078 134.339 87.2795C134.504 87.1512 134.148 86.3117 134.463 86.3578C134.6 86.3762 134.965 86.4899 134.982 86.3732C135.008 86.195 134.889 86.1066 134.592 85.9315C134.181 85.6888 135.258 85.4177 134.937 84.9491C134.832 84.7955 134.582 85.009 134.437 85.1427C133.962 85.5805 134.105 85.4952 133.992 85.2779C133.921 85.1419 133.825 84.8593 133.702 84.9061C133.647 84.9215 133.6 84.956 133.569 85.0037C133.538 85.052 133.526 85.1097 133.535 85.1657C133.505 85.4115 133.689 85.6788 133.118 85.5275C132.835 85.4507 132.75 85.5544 132.74 85.6496C132.73 85.7449 132.795 85.8301 133 85.9238Z" fill="black"/>
<path id="Subtract" fill-rule="evenodd" clip-rule="evenodd" d="M147.588 86.3282C147.768 87.1124 147.744 87.9304 147.516 88.7023C147.199 89.7623 146.776 90.7877 146.253 91.7632C146.09 92.0113 146.142 92.1211 146.273 92.4007C146.403 92.6749 146.608 93.1104 146.764 93.9975C146.869 95.016 146.807 96.0445 146.583 97.043C146.394 98.2697 145.555 99.3542 145.008 100.06C144.753 100.389 144.563 100.635 144.531 100.775C144.511 100.864 144.538 101.003 144.576 101.2C144.732 101.994 145.071 103.727 143.233 106.825C143.14 106.978 143.183 107.109 143.268 107.368C143.426 107.853 143.732 108.787 143.582 111.159C143.478 113.952 142.829 116.698 141.67 119.241C141.461 119.709 141.577 120.223 141.735 120.929C141.88 121.577 142.062 122.388 142.062 123.473C141.989 125.754 141.444 127.996 140.461 130.056C140.364 130.305 140.448 130.516 140.579 130.844C140.704 131.158 140.871 131.579 140.962 132.242C141.021 132.813 141.041 133.388 141.022 133.962C141.071 135.212 140.838 135.908 140.629 136.529C140.399 137.213 140.199 137.807 140.441 138.955C140.763 140.182 140.977 141.436 141.082 142.701C141.223 144.413 141.22 146.135 141.072 147.847C140.99 148.398 140.753 148.947 140.206 148.834C139.802 148.749 139.811 148.516 139.861 147.317C139.894 146.524 139.945 145.311 139.905 143.439C139.752 141.927 139.517 140.425 139.2 138.938C138.98 137.835 139.09 137.461 139.348 136.574C139.477 136.136 139.641 135.573 139.82 134.735C139.841 134.635 139.837 133.441 139.835 132.981C139.835 132.904 139.835 132.848 139.835 132.821C139.83 132.066 139.654 131.609 139.499 131.205C139.233 130.514 139.028 129.981 139.853 128.375C140.443 127.019 140.781 125.568 140.852 124.091C140.977 122.667 140.76 121.698 140.59 120.936C140.49 120.487 140.405 120.111 140.416 119.756C140.431 119.262 140.595 118.874 140.852 118.266C141.136 117.597 141.532 116.66 141.97 115.017C142.372 113.509 142.803 109.604 142.47 107.956C142.326 108.105 142.2 108.235 142.09 108.348C141.441 109.018 141.337 109.124 141.325 109.456C141.103 115.244 138.634 117.293 137.32 118.382C136.824 118.793 136.494 119.067 136.51 119.355C136.716 122.995 135.672 124.457 133.029 126.406C132.724 126.628 132.731 126.916 132.745 127.496C132.746 127.541 132.747 127.587 132.748 127.635C132.798 128.404 132.654 129.174 132.33 129.873C132.005 130.572 131.509 131.178 130.889 131.635C129.975 132.24 129.932 132.36 129.836 132.621L129.831 132.634C129.772 132.795 129.725 132.944 129.681 133.084C129.504 133.648 129.378 134.049 128.7 134.371C127.8 134.798 127.219 135.037 126.837 135.195C126.238 135.442 126.134 135.485 126.067 135.729C125.778 136.65 125.141 137.421 124.293 137.88C122.584 138.943 121.509 139.478 119.175 139.011C118.558 138.889 118.029 139.092 117.455 139.315C116.32 139.753 115.004 140.262 112.459 138.467C112.408 138.431 112.36 138.396 112.315 138.363C111.96 138.107 111.742 137.95 111.23 138.035C107.5 138.65 105.884 137.16 104.552 135.933C104.349 135.745 104.151 135.564 103.954 135.396C103.538 135.044 103.002 134.986 102.378 134.919C101.166 134.789 99.6181 134.623 97.9529 132.19C97.3638 131.33 96.6671 131.061 95.9213 130.774C94.7876 130.337 93.5402 129.855 92.382 127.19C92.0402 126.402 91.4787 126.166 90.4556 125.736C90.4187 125.72 90.3819 125.705 90.3442 125.689C88.2788 124.826 87.6513 123.114 87.1566 121.766C86.864 120.967 86.6182 120.298 86.1489 120.005C85.811 119.795 85.4476 119.649 85.079 119.502C83.8638 119.017 82.5865 118.506 81.9382 115.565C81.8484 115.16 81.4605 114.913 80.942 114.584C80.3982 114.238 79.7116 113.801 79.0771 112.997C78.3728 112.104 77.8973 111.143 77.5263 110.392C77.1715 109.676 76.9126 109.151 76.6384 109.06C75.7567 108.702 75.053 108.008 74.6813 107.133C74.3314 106.314 74.2307 105.741 74.1457 105.258C74.0365 104.636 73.9534 104.164 73.4009 103.509C72.7651 102.832 72.2062 102.086 71.7342 101.287C71.1235 100.31 72.3924 99.7398 73.3379 100.253C74.237 100.8 75.0412 101.489 75.719 102.294C75.7676 102.165 75.7991 101.98 75.8372 101.756C75.8726 101.549 75.9137 101.308 75.9794 101.046C76.3249 99.6653 76.4995 99.4279 76.4456 99.2659C76.4263 99.2075 76.3773 99.1591 76.2959 99.0708C75.9692 98.5869 75.5046 98.2121 74.9624 97.9955C74.4634 97.8918 73.9978 97.6667 73.6075 97.3387C73.5336 97.2343 73.482 97.1152 73.4561 96.99C73.4302 96.8648 73.4306 96.7358 73.4571 96.6098C73.4836 96.4846 73.5359 96.3663 73.6104 96.2626C73.6849 96.1582 73.7801 96.0706 73.8902 96.0053C74.1077 95.8594 74.2288 95.8279 74.2298 95.7926C74.2312 95.7442 74.0076 95.6897 73.4985 95.3248C72.3917 94.5329 74.1037 93.1181 76.5708 93.8915C80.2346 95.0406 80.2938 98.54 80.3375 101.159C80.3621 102.606 80.3821 103.783 81.0012 104.15C82.2086 104.865 83.0305 104.709 83.8324 104.556C84.6281 104.404 85.4023 104.257 86.5122 104.97C86.609 105.033 86.7012 105.097 86.7903 105.159C87.265 105.49 87.672 105.775 88.4831 105.543C90.9449 104.844 91.3189 105.095 92.2345 105.709C92.4565 105.858 92.7099 106.028 93.0318 106.211C93.5556 106.508 93.8667 106.41 94.3728 106.249C94.8206 106.107 95.4205 105.918 96.4559 105.909C97.4099 105.904 97.9015 106.258 98.9491 107.011L99.0114 107.056C99.4914 107.401 99.7671 107.295 100.202 107.127C100.57 106.984 101.051 106.798 101.866 106.804C102.674 106.81 103.456 107.097 104.078 107.614C104.525 108.029 104.882 108.008 105.254 107.986C105.338 107.981 105.423 107.976 105.509 107.976C105.677 107.977 105.669 107.921 105.633 107.673C105.587 107.351 105.493 106.702 105.676 105.427C105.713 105.159 105.813 104.903 105.969 104.681C106.124 104.458 106.33 104.277 106.57 104.15C106.864 103.977 106.892 103.948 106.801 103.617C106.622 103.092 106.549 102.537 106.585 101.983C106.622 101.43 106.77 100.89 107.017 100.393C107.265 99.8972 107.609 99.4556 108.03 99.0938C108.449 98.7313 108.937 98.4563 109.464 98.2843C109.688 98.2005 109.681 98.1053 109.642 97.5692C109.622 97.2765 109.592 96.8533 109.584 96.2304C109.555 93.8747 110.626 92.7187 112.474 91.2294C113.13 90.7001 113.112 89.9466 113.09 89.0088C113.063 87.869 113.029 86.4564 114.193 84.8434C115.124 83.6606 116.39 82.785 117.826 82.331C117.892 82.3095 117.955 82.2919 118.015 82.275C118.37 82.1743 118.608 82.106 118.731 81.546L118.735 81.5299C119.098 79.8785 119.439 78.3277 120.472 77.0765C121.435 75.9083 123.636 74.028 125.053 74.4212C125.508 74.5464 125.785 75.0941 125.36 75.1709C124.72 75.1179 124.081 75.2742 123.538 75.6164C120.663 77.2908 120.211 79.4522 119.879 81.0376C119.671 82.0299 119.51 82.7965 118.832 83.0761C118.682 83.1375 118.512 83.1974 118.327 83.2627C117.389 83.5922 116.055 84.0615 114.939 85.6062C114.157 86.6892 114.139 87.9189 114.122 89.0464C114.106 90.1195 114.091 91.1003 113.421 91.7747C113.122 92.0758 112.842 92.3369 112.585 92.5781C111.444 93.6442 110.739 94.304 110.739 96.1904C110.738 96.7043 110.748 97.1214 110.755 97.4624C110.785 98.6837 110.791 98.9371 110.197 99.2375C110.106 99.2835 110.002 99.3304 109.889 99.3811C109.165 99.7075 108.089 100.192 107.781 101.635C107.603 102.468 107.789 103.076 107.937 103.556C108.142 104.23 108.271 104.652 107.216 105.096C106.602 105.355 106.517 105.914 106.448 107.137C106.397 108.023 106.782 108.141 107.38 108.324C107.884 108.478 108.541 108.679 109.213 109.428C109.225 109.441 109.238 109.455 109.251 109.469C109.442 109.68 109.778 110.051 109.643 110.261C109.591 110.313 109.529 110.352 109.46 110.379C109.391 110.404 109.318 110.415 109.245 110.411C109.172 110.407 109.1 110.387 109.035 110.354C108.97 110.32 108.913 110.273 108.867 110.217C107.908 109.383 106.669 108.946 105.4 108.993C105.06 109.069 104.706 109.057 104.372 108.959C104.037 108.862 103.733 108.68 103.487 108.433C103.209 108.138 102.858 107.923 102.47 107.809C102.081 107.694 101.67 107.685 101.276 107.782C101.015 107.825 100.782 107.927 100.551 108.027C99.996 108.267 99.453 108.502 98.5513 107.915C98.1772 107.67 97.913 107.473 97.7041 107.316C97.2378 106.967 97.0427 106.821 96.5105 106.821C95.7155 106.821 95.1747 107.001 94.7054 107.158C93.8436 107.447 93.2246 107.653 91.7199 106.504C91.5478 106.325 91.3358 106.189 91.1016 106.106C90.8673 106.024 90.6177 105.997 90.3711 106.029C89.8127 106.146 89.3795 106.265 89.0216 106.362C87.7796 106.703 87.4462 106.794 85.9554 105.696C85.1727 105.118 84.2433 105.327 83.6104 105.469C83.433 105.508 83.2793 105.543 83.158 105.553C81.7286 105.679 81.4897 105.292 81.4121 105.322C81.3599 105.343 81.3806 105.551 81.1609 106.231C80.7569 107.738 79.9166 109.092 78.7468 110.124C78.69 110.186 78.6255 110.211 78.5732 110.233C78.4488 110.283 78.3889 110.306 78.6401 110.721C79.889 112.783 80.9597 113.409 81.7408 113.865C82.393 114.245 82.8431 114.509 83.0274 115.389C83.5151 117.719 84.4914 118.116 85.549 118.544C86.119 118.775 86.7135 119.017 87.2665 119.576C87.6329 119.947 87.775 120.346 87.9862 120.938C88.1337 121.353 88.3157 121.863 88.6321 122.525C89.3795 124.096 90.3527 124.517 91.7521 125.122L91.769 125.129C92.9872 125.657 93.2753 126.33 93.5879 127.062C93.9911 128.005 94.4343 129.042 96.9705 129.982C98.0919 130.397 98.5689 131.041 99.0498 131.69C99.7641 132.655 100.488 133.632 103.353 133.893C104.174 133.966 104.797 134.538 105.492 135.176C106.526 136.125 107.719 137.22 109.953 137.042C111.602 136.911 111.603 136.899 111.624 136.713C111.625 136.703 111.626 136.693 111.628 136.682C111.747 135.098 112.163 133.551 112.857 132.122C114.246 129.436 115.546 127.429 117.992 125.538C118.152 125.377 118.35 125.257 118.567 125.19C119.767 124.018 121.923 123.517 122.852 123.302C123.006 123.266 123.127 123.238 123.204 123.216C124.335 123.017 125.487 122.961 126.633 123.049C128.67 123.204 130.618 123.952 132.236 125.2C132.259 125.225 132.287 125.245 132.318 125.259C132.349 125.273 132.383 125.28 132.416 125.28C132.436 125.28 132.454 125.278 132.472 125.273C132.487 125.27 132.502 125.265 132.515 125.259C132.537 125.25 132.557 125.237 132.575 125.222C132.583 125.215 132.591 125.207 132.598 125.2C135.441 123.163 135.428 121.22 135.418 119.795C135.412 118.983 135.407 118.339 135.932 117.94C139.616 115.142 139.845 113.007 140.183 109.866C140.209 109.62 140.236 109.367 140.266 109.107C140.308 108.732 140.696 108.247 141.19 107.629C142.157 106.42 143.531 104.7 143.531 102.286C143.531 101.631 143.462 101.244 143.413 100.97C143.346 100.59 143.316 100.424 143.56 100.059C143.66 99.9088 143.784 99.7459 143.921 99.5662C144.657 98.5992 145.773 97.1329 145.659 94.4361C145.612 93.7164 145.395 93.0182 145.025 92.3991C144.819 92.0005 145.15 91.3438 145.561 90.5258C146.294 89.0695 147.285 87.1024 145.952 85.1722C145.77 84.9087 145.614 84.6998 145.482 84.5239C144.826 83.6491 144.79 83.5991 145.389 81.8901C146.551 78.5728 145.25 77.4398 144.28 76.5953C143.856 76.2269 143.496 75.9134 143.432 75.4973C143.251 74.7776 142.92 74.1043 142.46 73.5218C142.001 72.9393 141.423 72.4608 140.765 72.1177C140.452 71.9642 140.18 71.8408 139.937 71.7302C139.567 71.5615 139.262 71.4227 138.976 71.2529C138.654 71.0619 138.575 70.7516 138.478 70.3656C138.262 69.509 137.95 68.2792 134.675 67.152C134.578 67.1189 134.477 67.0892 134.374 67.0591C133.814 66.8946 133.201 66.7146 132.954 65.857C132.849 65.5033 132.665 65.178 132.416 64.9056C132.168 64.6333 131.859 64.421 131.517 64.2848C130.392 63.7038 129.125 63.4529 127.863 63.5612C127.696 63.5578 127.607 63.7615 127.464 64.0915C127.246 64.5929 126.902 65.3861 125.962 66.1888C124.624 67.5766 123.048 68.7131 121.308 69.5446C118.268 70.9287 113.357 71.8881 103.156 70.0447C94.243 68.4324 92.8543 64.6703 92.4088 63.2363C92.1239 62.2513 92.0955 61.2097 92.3274 60.2108C92.3589 60.0472 92.3474 60.0157 91.014 59.7338C90.3811 59.5171 89.696 59.509 89.0584 59.7108C87.8518 60.0608 86.7903 60.7925 86.0345 61.7961C85.7557 62.0849 85.6212 62.0546 85.304 61.9828C84.9952 61.9129 84.5136 61.8037 83.5558 61.9114C82.5535 62.1217 81.6057 62.5405 80.7754 63.1403C79.6923 63.9044 78.8759 64.9888 78.4411 66.2411C78.2391 66.7138 78.0095 66.7192 77.544 66.7302C77.2383 66.7373 76.8312 66.7469 76.2628 66.8932C73.702 67.5514 72.8479 69.02 72.3686 71.5686C72.2506 72.1954 72.0514 72.2769 71.5763 72.4713C71.1198 72.658 70.4089 72.9489 69.2709 73.9274C67.9449 75.0694 67.7522 76.1544 67.5857 77.0919C67.4317 77.9591 67.3001 78.6995 66.3138 79.2418C63.2782 80.9093 63.2637 81.7488 63.2183 84.3926C63.2154 84.5631 63.2124 84.7398 63.2084 84.9256C63.1903 85.7736 62.823 85.8612 62.224 86.0033C61.8779 86.0854 61.4544 86.1853 60.9763 86.4618C59.3973 87.3728 59.0812 88.2922 58.6804 89.4574C58.5552 89.8214 58.4217 90.2101 58.2388 90.6295C58.2045 90.6894 58.195 90.7608 58.2126 90.8276C58.2301 90.8945 58.2732 90.9521 58.3325 90.9874C59.6045 92.0297 59.9225 93.3101 59.3741 93.4C59.161 93.4345 59.151 93.4176 59.0671 93.2725C58.9351 93.0443 58.6198 92.4998 57.0406 91.3446C56.1414 90.8745 55.1202 90.6901 54.1134 90.8161C53.6626 90.8468 53.3372 90.9167 53.0816 90.972C52.5959 91.0765 52.3625 91.1264 52.0012 90.7524C50.5065 89.2116 49.1877 88.6317 46.123 89.9075C45.635 90.1102 45.3734 89.9582 44.9536 89.7131C44.4487 89.4197 43.7151 88.9919 42.0844 88.889C41.4681 88.8498 41.0242 88.9765 40.6522 89.0825C40.0975 89.2415 39.7027 89.3537 39.1349 88.8022C38.2455 87.9389 37.1916 88.2338 36.3744 88.4627C36.2777 88.4896 36.1843 88.5157 36.0948 88.5387C35.6174 88.6624 35.513 88.5095 35.3666 88.2952C35.2178 88.0779 35.0255 87.7968 34.3543 87.6769C34.0493 87.6216 33.7417 87.5817 33.4326 87.5586C32.6246 89.624 30.8165 92.1887 28.6305 92.6196C28.5084 93.0543 28.5094 93.5136 28.6332 93.9476C28.757 94.3816 28.9988 94.7725 29.3318 95.0775C31.1287 96.5453 31.0757 96.7534 30.9846 97.1122C30.9244 97.3495 30.8475 97.6521 31.2773 98.4279C32.0961 99.9042 33.1909 100.493 34.7488 101.331C34.7867 101.35 34.825 101.371 34.8635 101.392C35.2168 101.582 35.2691 101.712 35.3807 101.991C35.514 102.324 35.7317 102.867 36.647 103.976C37.6715 105.219 38.5894 105.445 39.3245 105.627C39.9457 105.78 40.4364 105.901 40.7509 106.577C41.5659 107.634 42.6062 108.498 43.7964 109.104C44.621 109.498 45.5201 109.713 46.434 109.733C46.8942 109.793 46.9473 109.958 47.0424 110.252C47.126 110.51 47.2421 110.869 47.696 111.346C48.6579 112.472 49.9598 113.254 51.4051 113.574C51.9986 113.709 52.6073 113.764 53.2155 113.741C53.3691 113.744 53.4459 113.695 53.4459 113.529C53.4298 112.018 56.3386 106.401 62.5962 104.169C63.228 103.934 63.8804 103.758 64.5448 103.646C64.7192 103.633 64.7243 103.479 64.7357 103.127C64.7546 102.547 64.7909 101.432 65.6302 99.5362C66.1882 98.275 66.632 97.6613 66.9215 97.2612C67.1924 96.8871 67.3284 96.6989 67.2969 96.3418C67.2352 95.5959 67.2841 94.8455 67.4421 94.1143C68.1819 90.6126 69.2545 89.3959 69.9855 88.5664C70.3996 88.0963 70.7041 87.7507 70.7764 87.1846C70.9868 85.5271 71.877 82.6759 73.0668 81.3164C73.4893 80.8332 74.1828 81.4416 73.7135 81.7304C72.9762 82.1828 72.0721 85.5378 71.8094 86.7045C71.7405 87.0087 71.7218 87.2606 71.705 87.4857C71.6708 87.9458 71.6447 88.296 71.2157 88.7599C70.2585 89.6924 69.5234 90.8284 69.0651 92.0835C68.6703 93.102 68.098 95.3955 68.3331 96.4531C68.3821 96.6697 68.3752 96.8956 68.3128 97.1083C68.2505 97.3218 68.1347 97.5154 67.9767 97.6713C67.7026 98.0185 67.4609 98.3903 67.2547 98.782C65.6669 101.364 65.7434 103.439 65.7955 104.852C65.8237 105.62 65.8448 106.192 65.5879 106.544C63.4173 109.515 63.8517 113.373 64.0329 114.981C64.0603 115.224 64.0818 115.416 64.0878 115.546C64.1136 116.106 63.8299 116.628 63.4767 117.278C63.1035 117.963 62.6527 118.793 62.4072 119.961C62.2518 120.701 62.3829 121.447 62.5362 122.319C62.6086 122.732 62.6861 123.172 62.7406 123.654C62.8039 124.212 62.8682 124.624 62.9174 124.94C63.0391 125.72 63.0693 125.914 62.7675 126.27C61.7581 127.421 61.2063 128.903 61.2167 130.433C61.3747 131.559 61.6462 132.341 61.8555 132.944C62.1702 133.851 62.344 134.352 61.779 135C61.6651 135.13 61.5563 135.231 61.4567 135.323C61.1968 135.564 61.0003 135.745 60.9448 136.238C60.7274 138.2 61.1067 139.277 61.3763 140.042C61.6288 140.759 61.7851 141.202 61.2651 141.845C61.0801 142.074 60.9247 142.241 60.7926 142.383C60.5016 142.696 60.324 142.886 60.1952 143.346C59.9385 144.929 60.0408 146.549 60.4947 148.086C60.719 148.434 59.6337 148.497 59.285 147.378C58.5729 145.093 58.4931 142.747 60.2435 141.128C60.4555 140.932 60.337 140.575 60.1526 140.019C59.8792 139.196 59.461 137.935 59.7596 136.116C59.9339 135.044 60.3339 134.679 60.6177 134.42C60.7579 134.292 60.8696 134.19 60.9118 134.042C60.8099 133.533 60.6723 133.032 60.5001 132.542C59.8994 131.201 59.8398 129.68 60.3334 128.296C60.6726 126.928 61.1174 126.368 61.4173 125.991C61.6662 125.677 61.8154 125.49 61.7221 125.07C61.6315 124.609 61.5658 124.144 61.5255 123.677C61.467 123.157 61.4109 122.717 61.3622 122.337C61.0928 120.231 61.05 119.897 62.0908 117.342C62.1476 117.203 61.8423 117.255 61.045 117.393C61.0028 117.4 60.9591 117.407 60.9141 117.415C58.3133 117.857 55.3708 116.354 53.3207 114.708C53.1608 114.579 52.9545 114.61 52.6626 114.653C52.2021 114.721 51.5283 114.821 50.4865 114.375C50.1372 114.225 49.8633 114.115 49.6364 114.023C48.8649 113.711 48.637 113.62 47.8381 112.952C46.759 112.051 46.4411 111.484 46.2481 111.138C46.0798 110.838 46.0064 110.707 45.606 110.673C44.2769 110.555 43.0101 110.055 41.9584 109.234C40.6519 108.221 40.2124 107.628 39.9384 107.259C39.6729 106.9 39.5629 106.752 38.9697 106.635C36.5887 106.166 34.8704 103.748 34.438 102.487C34.3781 102.313 34.0766 102.157 33.6469 101.933C32.764 101.476 31.3397 100.737 30.3556 98.9871C30.0085 98.4832 29.8475 97.8741 29.9001 97.265C29.9793 97.0446 29.7302 96.841 29.3645 96.5415C28.8791 96.1451 28.1887 95.5798 27.7879 94.5859C27.5313 93.9945 27.4644 93.3378 27.5966 92.7072C26.6105 92.6749 25.6431 92.4299 24.7612 91.9875C23.8793 91.545 23.104 90.916 22.4888 90.1448C21.26 89.5442 20.1132 88.7884 19.0762 87.8966C18.5877 87.4734 17.5531 86.0862 18.2198 85.4387C18.61 85.0593 19.438 85.2905 19.8865 85.4956C19.1751 84.9364 18.5631 84.2612 18.0762 83.4985C17.8896 83.2627 17.7777 82.9762 17.7549 82.6759C17.732 82.3763 17.7992 82.076 17.9479 81.8149C18.1297 81.619 18.367 81.4846 18.628 81.4277C18.889 81.3717 19.1609 81.3963 19.4073 81.4992C19.4292 81.5069 19.4521 81.5161 19.4758 81.5253C19.5075 81.5376 19.5404 81.5499 19.5739 81.5614C18.8469 81.0752 18.2593 80.4085 17.8688 79.6258C17.8033 79.4484 17.7967 79.2548 17.8498 79.0728C17.9029 78.8915 18.0129 78.7318 18.1637 78.6173C18.32 78.5036 18.501 78.4299 18.6919 78.4007C18.7543 78.3915 18.8172 78.3869 18.88 78.3869C19.0307 78.6442 19.1865 78.91 19.3473 79.1849C18.9534 79.0651 18.6456 79.0513 18.5447 79.2395C18.4141 79.4806 18.7505 79.8478 18.981 80.0728C19.5732 80.6689 20.1952 81.2342 20.8443 81.7657C21.1403 82.2734 21.4681 82.8195 21.8302 83.4033C21.1985 83.0162 20.5336 82.6851 19.8428 82.4132C19.2268 82.1559 18.0961 81.9078 18.623 83.0116C19.6016 84.5669 21.5364 85.8389 23.1018 86.789C23.1922 86.8366 23.2601 86.9181 23.2905 87.0156C23.3209 87.1132 23.3113 87.2184 23.2638 87.309C23.2164 87.3997 23.1349 87.4672 23.0374 87.498C22.9399 87.5279 22.8342 87.5187 22.7438 87.4711C22.3982 87.289 18.9764 85.5155 18.6929 85.9971C18.527 86.2322 18.8681 86.6899 19.3074 87.1423C20.3127 88.1762 21.418 88.73 22.1769 89.1102C22.5904 89.3168 22.901 89.4727 23.0365 89.6263C23.3666 90.0019 23.745 90.333 24.1617 90.6095C27.5075 92.8462 29.3632 91.4037 30.0177 90.8584C31.2968 89.7523 32.2502 88.3183 32.7751 86.7107C32.9132 86.3451 33.0336 85.9741 33.1361 85.5985C33.4502 85.3681 33.761 85.133 34.0686 84.8934C34.1193 84.8511 34.1673 84.8112 34.2127 84.7712C34.1176 85.3857 33.9688 85.9933 33.7667 86.587C34.2472 86.6492 34.7237 86.7399 35.1938 86.8574C35.5499 86.9465 35.7036 87.117 35.8242 87.2506C35.9462 87.3858 36.0342 87.4834 36.2638 87.4204C36.8004 87.2138 37.3793 87.1423 37.9501 87.2115C38.5209 87.2798 39.0661 87.488 39.5381 87.816C39.8799 88.0825 40.1803 88.2876 40.5981 88.0172C42.2168 87.6554 43.9126 87.9212 45.3426 88.7622C45.7164 88.9666 46.0796 88.8252 46.5834 88.6294C47.1384 88.4135 47.8642 88.1309 48.9634 88.1708C50.1934 88.1731 51.3737 88.6562 52.2523 89.5173C52.7134 89.9743 52.9998 89.9259 53.5026 89.8406C54.1431 89.7323 55.1348 89.5641 57.2864 90.3061C57.3305 90.3215 57.3564 90.3315 57.3746 90.3238C57.4462 90.293 57.3982 89.9827 57.8617 88.584C58.1148 87.8183 58.5398 87.1208 59.1042 86.5448C59.6685 85.9687 60.3573 85.5301 61.1176 85.2613C61.418 85.1561 61.6347 85.0969 61.7906 85.0547C62.1175 84.9656 62.1761 84.9494 62.1761 84.7351C62.1807 81.3241 62.2951 80.2626 65.9635 78.2102C66.3142 78.0136 66.4026 77.5466 66.521 76.9206C66.6883 76.0362 66.9154 74.8357 68.0274 73.6378C68.7104 72.9692 69.4741 72.3884 70.3009 71.9088C70.5661 71.7734 70.765 71.6955 70.9149 71.6368C71.2056 71.5228 71.3125 71.4809 71.3632 71.2321C71.5206 69.7931 72.1474 68.446 73.1467 67.3986C73.7484 66.7388 74.5338 66.2742 75.4018 66.0644C76.3297 65.7719 76.842 65.7336 77.1492 65.7106C77.4587 65.6875 77.5609 65.6799 77.6707 65.4446C77.9634 64.605 78.4565 63.8496 79.1078 63.244C79.8222 62.487 80.6909 61.8923 81.6548 61.5004C82.2877 61.1536 82.9913 60.9557 83.7118 60.9221C84.2371 60.8815 84.7656 60.9073 85.284 60.9989C85.4031 61.0336 85.5867 60.8481 85.864 60.5685C86.715 59.7104 88.4455 57.9664 91.8635 58.9849C90.1269 56.6055 89.116 53.7744 88.9532 50.8332C88.8787 49.5784 88.9855 48.6525 89.0577 48.0317C89.1114 47.5595 89.146 47.2638 89.0646 47.1341C87.7888 44.7219 87.139 42.0281 87.1743 39.2996C87.7681 30.946 91.6915 27.8375 93.4688 26.4297C93.9204 26.0718 94.2331 25.8238 94.3176 25.6276C97.0635 19.2478 107.457 16.4919 114.216 17.2807C131.161 19.2592 133.435 32.3859 134.027 35.8044C134.105 36.2559 134.155 36.538 134.204 36.6028C136.935 40.1752 135.619 48.7148 132.283 50.8424C132.172 50.9132 132.073 50.9548 131.984 50.9923C131.766 51.0837 131.605 51.1513 131.464 51.5613C130.434 54.5454 126.812 58.3075 126.269 58.7975C125.968 59.0258 125.686 59.2778 125.424 59.551C125.411 59.5679 125.448 59.6624 125.497 59.6624C126.157 59.8042 126.758 60.1454 127.217 60.6401C127.677 61.1347 127.974 61.7587 128.067 62.4275C128.087 62.5582 128.09 62.6238 128.124 62.6566C128.219 62.7472 128.551 62.59 130.141 62.8576C130.97 63.0703 131.761 63.4121 132.484 63.8708C133.365 64.4997 133.559 65.0265 133.708 65.4316C133.839 65.7879 133.936 66.0501 134.434 66.205C136.331 66.7926 137.835 67.2864 138.788 68.8503C139.045 69.3531 139.257 69.8774 139.422 70.4172C139.508 70.6186 139.798 70.7328 140.213 70.8965C141.072 71.2349 142.466 71.7847 143.711 73.7515C144.031 74.2554 144.099 74.6324 144.154 74.9346C144.211 75.2537 144.253 75.4893 144.561 75.7032C145.135 76.1421 145.634 76.6713 146.038 77.2701C147.216 78.8485 146.773 81.3471 145.95 83.1345C145.8 83.4617 146.038 83.7251 146.463 84.1959L146.488 84.2228C147.029 84.8189 147.408 85.5432 147.588 86.3282ZM34.2852 82.0645C34.244 81.6543 34.179 81.2449 34.0901 80.8394C33.9618 80.4976 33.7944 80.0521 33.2989 79.9538C33.2502 79.9438 33.2018 79.9407 33.1535 79.943C33.6521 80.8594 34.0188 81.543 34.2852 82.0645ZM62.2191 105.166C58.4193 106.414 54.552 111.129 54.0512 113.811C54.0265 113.943 54.0128 114.006 54.0311 114.056C54.0487 114.105 54.0957 114.144 54.191 114.223C55.6904 115.339 57.4182 116.109 59.2504 116.477C60.321 116.595 61.4043 116.487 62.4311 116.162C62.9533 115.996 62.9305 115.764 62.8388 114.835C62.802 114.462 62.7541 113.976 62.726 113.337C62.5625 109.627 63.3362 108.194 63.9559 107.047C64.3583 106.302 64.6957 105.678 64.67 104.628C64.6694 104.603 64.6717 104.58 64.6738 104.559C64.6931 104.364 64.6942 104.352 62.2191 105.166ZM128.531 44.8091C128.833 51.1758 131.69 51.5921 133.442 47.6425C136.235 41.3465 133.441 34.2832 130.856 37.367C129.004 39.5795 128.771 42.1656 128.589 44.1821C128.57 44.398 128.551 44.6074 128.531 44.8091ZM129.126 50.3297C128.984 50.1599 128.73 49.8572 128.468 49.3062C126.843 45.8928 127.612 40.6683 129.064 38.0944C129.872 36.6669 130.391 36.3847 130.718 36.207C130.78 36.1739 130.833 36.1445 130.882 36.112C130.893 36.1045 130.905 36.0968 130.916 36.089C131.052 36 131.215 35.893 131.124 35.8224C130.81 35.6855 130.465 35.6387 130.126 35.6872C129.211 35.742 128.347 36.1237 127.69 36.7626C125.619 38.7427 124.247 45.9128 126.167 49.5797C126.689 50.5736 128.191 50.6665 129.134 50.5536C129.297 50.5336 129.263 50.4935 129.126 50.3297ZM120.337 19.7232C111.181 16.1708 100.862 18.9336 96.5757 23.7288V23.7296C96.2624 24.0265 96.0004 24.3739 95.8023 24.7573C95.9405 24.7251 96.1502 24.6055 96.4475 24.436C97.8462 23.6384 101.183 21.735 108.139 22.632C113.93 23.3801 121.066 27.3235 125.512 33.7493C126.676 35.4316 126.827 35.9393 126.969 35.9368C127.149 35.9336 127.315 35.1068 129.525 34.8193C130.6 34.6916 131.688 34.8896 132.65 35.3877C132.863 35.4627 132.836 35.346 132.74 34.9398C132.695 34.7514 132.635 34.5007 132.578 34.1779C132.245 32.4995 131.687 30.8735 130.921 29.3436C129.868 26.7897 126.943 22.2848 120.337 19.7232ZM107.806 54.199C107.71 53.9679 107.559 53.607 107.423 53.0461V53.0468C107.4 52.9532 107.378 52.8602 107.356 52.7677C106.622 49.753 106.018 47.2688 106.732 43.0248C106.747 42.8958 106.8 42.774 106.884 42.675C106.968 42.5759 107.079 42.504 107.204 42.4684C107.329 42.4327 107.462 42.4348 107.586 42.4745C107.709 42.5142 107.818 42.5897 107.899 42.6914C108.94 43.984 109.392 44.5516 109.615 44.4724C109.907 44.3688 109.805 43.1564 110.115 41.0109C110.782 36.3785 111.417 33.1932 113.615 28.9687C114.846 26.605 115.264 26.2584 115.203 26.1232C115.189 26.0894 115.144 26.0687 115.074 26.0331C113.296 25.1188 111.413 24.4225 109.467 23.9593C108.664 23.7388 104.83 35.6719 104.509 36.8148C104.396 37.2219 103.814 37.6651 103.191 36.3002C103.006 35.7726 102.775 35.2626 102.499 34.7763C102.013 35.6679 101.678 36.634 101.508 37.6351L101.448 37.9377C100.205 44.2613 99.7879 46.3847 100.842 52.5852C100.89 52.8678 100.921 53.0963 100.945 53.281C101.024 53.8555 101.044 54.0068 101.342 54.0446C103.419 54.5145 105.55 54.7008 107.677 54.5984C107.971 54.5952 107.945 54.5325 107.806 54.199ZM90.0562 48.6303C89.7144 49.8938 90.1599 53.861 91.7053 56.8189V56.8197C95.3583 63.8124 114.777 64.5321 122.218 60.3229C127.236 57.4849 130.015 52.3579 130.368 51.6543C130.473 51.4436 130.2 51.4693 129.72 51.5143C128.391 51.6392 125.471 51.9134 124.575 47.747C124.486 47.3259 124.444 47.3887 124.234 47.7091C124.101 47.9118 123.9 48.2174 123.576 48.5689C115.147 57.7253 102.159 56.7045 95.6556 53.0399C92.4288 51.2212 91.6354 50.3153 90.9587 49.5425C90.6891 49.2338 90.4372 48.9463 90.0562 48.6303ZM121.21 62.1241C119.543 64.7719 116.353 65.7111 113.229 65.8424C108.757 66.0783 104.277 65.5104 100.005 64.1657C98.6196 63.8218 97.3769 63.0531 96.4498 61.9674C97.9813 62.4983 99.5398 62.9505 101.117 63.3223C112.526 65.3269 118.714 63.0237 120.612 62.3171C120.931 62.1981 121.129 62.1244 121.21 62.1241ZM116.263 69.9548C120.651 69.1813 123.398 67.3909 124.798 66.0675L124.793 66.0667C127.202 63.7893 127.2 62.8784 127.119 62.2923C127.016 61.7222 126.728 61.2016 126.301 60.8105C125.873 60.4194 125.329 60.1793 124.752 60.1271C124.667 60.1087 124.494 60.2302 124.229 60.4164C123.895 60.651 123.415 60.9885 122.779 61.2792C122.571 61.3754 122.539 61.506 122.483 61.7402C122.445 61.895 122.397 62.0952 122.279 62.3607C121.587 63.9191 118.308 66.4354 113.955 66.8248C113.574 66.859 113.008 66.8382 112.431 66.8169C111.945 66.799 111.451 66.7808 111.052 66.7949C107.581 66.7201 104.132 66.2301 100.778 65.3355C99.1834 65.0235 97.6979 64.3025 96.4667 63.2432C95.6295 62.4992 95.4904 62.0653 95.3944 61.7648C95.3314 61.5656 95.2861 61.425 95.0687 61.2915C93.6432 60.4162 93.3359 60.1732 93.2576 60.2325C93.2353 60.2493 93.2315 60.2901 93.2253 60.3475C92.8897 61.5504 93.0456 62.8373 93.6585 63.9253C95.9567 67.5706 100.658 68.5768 104.482 69.2781C108.36 69.9886 112.819 70.5616 116.263 69.9548ZM76.822 108.402C77.0002 108.504 77.15 108.59 77.2491 108.689V108.69C77.3627 108.802 77.461 108.914 77.5501 109.015C77.8804 109.39 78.0824 109.619 78.4442 109.233C79.1485 108.345 79.7331 107.367 80.1832 106.326C80.3552 105.875 80.4566 105.401 80.4843 104.919C80.4996 104.808 80.4451 104.725 80.3591 104.593C80.1855 104.328 79.8805 103.862 79.753 102.557C79.6993 102.003 79.6586 101.463 79.6194 100.943C79.3567 97.4324 79.1601 94.804 75.252 94.4791C74.547 94.5782 74.1604 94.5982 74.1417 94.6919C74.1185 94.8079 74.6579 95.0368 75.8534 95.6658C76.3647 95.7849 76.855 95.98 77.309 96.2442C78.3098 96.755 79.0172 98.3035 78.6424 98.4717C78.3551 98.6007 78.1784 98.2881 77.9718 97.924C77.8167 97.6498 77.6446 97.3464 77.3973 97.1782C76.9871 96.8594 76.5045 96.6467 75.9923 96.5591C75.4801 96.4723 74.9542 96.513 74.4617 96.6782C74.2339 96.8141 74.4074 96.8763 74.7688 97.0069C75.2486 97.1797 76.0597 97.4724 76.7037 98.2144C77.3328 98.941 77.1584 99.6038 76.9188 100.515C76.6306 101.611 76.2478 103.066 77.057 105.422C77.1292 105.633 77.1093 105.975 76.8788 105.848C76.376 105.57 76.116 104.73 75.8835 103.979L75.8619 103.909C75.788 103.671 75.6729 103.611 75.5395 103.542C75.4287 103.485 75.3052 103.42 75.1821 103.242C74.4917 102.272 73.5826 101.477 72.5284 100.923C72.0345 100.75 73.1329 102.205 73.5169 102.613C74.4508 103.616 74.5582 104.176 74.7132 104.984C74.7664 105.262 74.8251 105.569 74.9248 105.932C75.3747 107.572 76.2476 108.073 76.822 108.402ZM131.133 129.61C131.396 129.033 131.544 128.41 131.566 127.776V127.777C131.595 126.59 131.71 126.27 131.601 126.081C131.547 125.988 131.439 125.926 131.24 125.807C125.366 122.327 117.899 124 113.537 132.582C112.925 133.881 112.53 135.273 112.371 136.701C112.342 136.779 112.342 136.865 112.374 136.941C112.405 137.019 112.463 137.082 112.537 137.118C113.097 137.524 113.691 137.878 114.313 138.177C115.797 138.784 116.381 138.534 117.124 138.214C117.377 138.106 117.648 137.989 117.98 137.896C118.583 137.727 119.134 137.807 119.713 137.89C120.933 138.067 122.275 138.261 124.49 136.181C124.955 135.744 125.016 135.484 125.067 135.261C125.164 134.845 125.232 134.553 127.812 133.479C128.396 133.236 128.472 132.984 128.593 132.582C128.614 132.512 128.637 132.438 128.663 132.359C128.949 131.504 129.485 131.139 130.005 130.784C130.446 130.483 130.876 130.189 131.133 129.61Z" fill="black"/>
<path id="Vector_14" d="M14.2161 73.5469C15.1086 75.7045 20.5029 83.7809 22.3041 86.7496C22.8857 87.7696 23.5269 88.7535 24.2243 89.6983C25.1721 90.7337 25.6068 90.9111 26.5009 90.7421C27.9288 90.471 35.4353 85.6574 36.0329 84.5022C36.6036 83.4 35.8954 83.0205 30.7116 73.2481C25.7113 63.8198 26.368 64.0464 20.7264 66.2715C18.7027 67.2078 16.737 68.2646 14.8398 69.4361C13.418 70.3186 13.5217 71.8686 14.2161 73.5469ZM16.3898 69.774C17.0895 69.357 17.0864 69.3393 17.7232 69.8324C17.9116 70.0097 18.1514 70.1227 18.4081 70.1551C18.6648 70.1875 18.9251 70.1377 19.1518 70.0129C21.4983 68.8116 22.9108 68.5589 22.4861 67.2639C22.4601 67.1592 22.4619 67.0496 22.4911 66.9458C22.5203 66.8419 22.576 66.7475 22.6528 66.6717C25.4002 65.3936 25.444 65.813 29.5487 73.3503C33.2255 80.0995 34.4737 82.267 34.8201 83.2271C35.0006 83.7272 35.0766 84.062 34.0681 84.8939C31.937 86.553 29.6471 87.9977 27.2321 89.2067C26.1092 89.6676 25.4732 88.7896 24.7896 87.8326C22.9877 85.3094 21.6496 83.1665 20.6788 81.4813C14.4834 70.7219 14.0555 71.1666 16.3898 69.774Z" fill="black"/>
<path id="Vector_15" d="M27.2326 53.2536C26.9653 53.2076 27.0452 52.9956 27.0659 52.7805C28.3217 39.7437 27.2326 37.2044 28.0475 37.2958C29.1774 37.4225 28.1121 53.408 27.2326 53.2536Z" fill="black"/>
<path id="Vector_16" d="M38.9468 73.126C39.0351 73.0577 39.0896 72.9778 39.1595 72.9594C39.6253 72.8338 40.1033 72.759 40.5851 72.7358C41.7035 72.7789 54.9584 73.3711 54.8631 74.4725C54.8247 74.9111 53.5512 74.4948 52.2839 74.378C38.4275 73.0984 39.4514 73.8657 38.9468 73.126Z" fill="black"/>
<path id="Vector_17" d="M43.1147 55.1062C36.4323 61.6066 36.9308 61.8992 36.6021 60.8039C39.3941 57.3475 46.0265 50.9178 47.9475 50.0914C48.0059 50.0668 48.2348 50.2496 48.1511 50.3602C48.1186 50.4027 48.0885 50.4471 48.0612 50.4931C48.0051 50.5015 47.4152 50.9247 43.1147 55.1062Z" fill="black"/>
<path id="Vector_18" d="M9.55842 50.6597C7.36782 47.0935 6.10738 45.4713 5.95453 44.8652C5.16724 41.7506 15.0126 57.2315 14.2499 58.4266C13.2191 57.2899 14.5979 58.8645 9.55842 50.6597Z" fill="black"/>
<path id="Vector_19" d="M20.7306 70.9413C21.5547 71.088 23.1547 71.5097 23.9934 71.7278C24.5987 71.9728 24.6348 72.1211 24.2331 72.5842C23.5042 73.4291 23.3167 73.2755 23.8129 73.7179C29.9 79.1767 29.8747 78.9617 28.4038 79.219C25.9774 79.6445 26.7908 79.0915 30.6028 83.5787C31.2711 84.3652 30.2879 85.0135 29.7695 85.0488C29.4622 85.0695 29.1596 84.6133 29.0513 84.485C23.3674 77.755 23.0648 78.2404 25.6049 77.9409C25.8299 77.914 25.9367 77.7489 25.5888 77.374C22.9081 74.4891 23.2031 74.7549 22.8236 74.4553C21.9373 73.7464 21.0993 76.387 20.7398 74.3017C20.1614 70.9305 19.9656 70.8046 20.7306 70.9413Z" fill="black"/>
<path id="Vector_20" d="M68.1637 28.1697C67.0277 29.1183 64.2188 31.1376 65.1328 31.5854C65.3962 31.7137 65.5268 31.3504 66.1144 30.8718C68.7467 28.7281 68.4717 28.9094 68.5301 29.2911C68.719 30.5201 68.5039 32.769 68.9786 32.6784C69.0654 32.6623 69.1914 32.62 69.2152 32.557C69.5647 31.6215 69.1315 29.0169 69.3166 28.9509C69.4833 28.8917 72.0156 31.3918 72.4189 31.517C72.8221 31.6422 72.9619 31.2482 72.7945 30.9433C72.7338 30.8327 70.9926 29.2228 70.8988 29.136C69.6561 27.993 69.5439 28.1213 69.6937 27.9692C70.183 27.4746 73.6816 24.7632 73.2961 24.267C72.9627 23.8384 70.7091 26.0275 69.2951 27.2326C69.2336 25.7687 69.176 21.9866 69.0984 21.783C69.0308 21.6048 68.7144 21.6164 68.6837 22.0365C68.5339 23.9652 68.6299 27.0829 68.4786 27.0806C68.3273 27.0782 66.1812 25.284 65.2426 24.9721C65.1855 24.949 65.1222 24.946 65.063 24.9633C65.004 24.9807 64.9524 25.0175 64.9169 25.0679C64.8812 25.1182 64.8637 25.1791 64.8671 25.2406C64.8705 25.3021 64.8945 25.3607 64.9354 25.4069C65.7795 26.251 68.5132 27.8763 68.1637 28.1697Z" fill="black"/>
<path id="Vector_21" d="M32.5926 10.0743C32.8683 10.3101 32.5826 10.3378 31.5664 11.2825C30.3321 12.4293 30.3305 12.4899 30.2322 12.7834C30.1339 13.0768 30.4772 13.4501 30.7791 13.0868C31.081 12.7234 32.8737 11.2149 32.9828 11.1381C33.0911 11.5437 32.9321 13.4239 33.1095 14.6928C33.2339 15.583 33.7762 15.2773 33.7762 13.8886C33.7762 11.1466 33.7862 11.5552 33.8346 11.2887C34.1679 11.5191 33.7386 11.1466 35.2171 12.5944C35.8823 13.2427 36.7787 13.1321 35.3439 11.6427C33.8453 10.082 33.8768 10.3086 34.1249 10.0551C34.6626 9.50976 35.9345 8.26622 36.7364 7.43822C37.4277 6.71928 37.2364 6.45429 36.9999 6.57488C35.1403 7.52348 33.7869 9.53894 33.7823 9.02509C33.737 3.82435 33.6625 3.852 33.3292 3.84586C32.9136 3.83895 33.0219 4.0494 33.0219 6.69317C33.0404 6.69317 33.0557 9.11342 32.9835 9.3354C32.8407 9.24016 30.4488 7.18936 29.9112 7.03113C29.5578 6.92897 29.4119 7.27154 29.6193 7.49582C29.8566 7.75237 29.9288 7.78847 32.5926 10.0743Z" fill="black"/>
<path id="Vector_22" d="M29.0786 121.286C31.346 119.468 31.1793 118.707 30.922 118.894C28.8105 120.417 29.1554 120.187 28.3228 120.822C27.9203 121.13 28.3366 115.085 27.5224 115.079C27.0224 115.079 27.1922 115.579 27.3443 118.87C27.4072 120.226 27.2797 118.513 27.4211 120.736C27.4618 121.388 25.5323 119.019 23.3102 118.492C23.2798 118.483 23.2479 118.48 23.2165 118.484C23.185 118.489 23.1548 118.5 23.128 118.517C23.1011 118.533 23.0782 118.556 23.0607 118.583C23.0433 118.609 23.0317 118.639 23.0268 118.67C22.95 119.04 23.1804 119.047 23.3986 119.17C24.6413 119.879 23.8871 119.313 26.8488 121.531C27.2759 121.85 27.1346 121.805 26.6491 122.256C25.8495 123 23.8671 124.604 24.5507 124.867C24.9424 125.017 25.0054 124.79 27.2444 122.822C27.7928 122.34 27.3473 124.571 27.8589 126.636C27.8723 126.691 27.9043 126.738 27.9493 126.772C27.9943 126.805 28.0495 126.822 28.1054 126.819C28.5709 126.846 28.4956 126.351 28.2721 123.088C28.2721 122.474 28.1784 122.605 29.4388 123.542C30.2292 124.129 30.3813 124.209 30.6847 124.233C30.9881 124.258 31.018 123.9 30.796 123.68C30.6424 123.527 30.6102 123.48 28.6293 121.882C28.4764 121.756 28.5156 121.737 29.0786 121.286Z" fill="black"/>
</g>
</g>
</g>
</svg>
